<svg version="1.1" xmlns="http://www.w3.org/2000/svg" xmlns:xlink="http://www.w3.org/1999/xlink" x="0px" y="0px" viewBox="0 0 110.9 198.8" style="enable-background:new 0 0 110.9 198.8;" xml:space="preserve">
	<style type="text/css">
		.st0a{fill:#FFFFFF;stroke:#FFFFFF;stroke-miterlimit:10;}
		.st1a{fill:#6AD49F;stroke:#193326;stroke-width:3;stroke-miterlimit:10;}
		.st2a{fill:none;stroke:#95E5BD;stroke-width:2;stroke-linecap:round;stroke-miterlimit:10;}
		.st3a{fill:none;stroke:#95E5BD;stroke-width:3;stroke-linecap:round;stroke-miterlimit:10;}
		.st4a{stroke:#193326;stroke-width:2;stroke-miterlimit:10;}
		.st5a{fill:url(#Overlay_1_);stroke:#193326;stroke-width:2;stroke-miterlimit:10;}
		.st6a{fill:#FFFFFF;}
		.st7a{fill:#36805B;stroke:#193326;stroke-width:3;stroke-miterlimit:10;}
		.st8a{fill:url(#OVERLAY_2_);stroke:#193326;stroke-width:3;stroke-miterlimit:10;}
		.st9a{fill:none;stroke:#6AD49F;stroke-width:3;stroke-linecap:round;stroke-miterlimit:10;}
		.st10a{stroke:#193326;stroke-width:3;stroke-miterlimit:10;}
		.st11a{fill:url(#OVERLAY_6_);stroke:#193326;stroke-width:3;stroke-miterlimit:10;}
		.st12a{fill:url(#OVERLAY_7_);stroke:#193326;stroke-width:3;stroke-miterlimit:10;}
		.st13a{fill:none;stroke:#6AD49F;stroke-width:2;stroke-linecap:round;stroke-miterlimit:10;}
		.st14a{fill:#47CC8A;stroke:#193326;stroke-width:2.4803;stroke-miterlimit:10;}
		.st15a{fill:url(#OVERLAY_8_);stroke:#193326;stroke-width:3;stroke-miterlimit:10;}
		.st16a{fill:none;stroke:#193326;stroke-width:2;stroke-linecap:round;stroke-miterlimit:10;}
		.st17a{fill:url(#OVERLAY_12_);stroke:#193326;stroke-width:3;stroke-miterlimit:10;}
		.st18a{fill:#95E5BD;stroke:#193326;stroke-width:3;stroke-miterlimit:10;}
		.st19a{fill:#95E5BD;stroke:#193326;stroke-width:2;stroke-miterlimit:10;}
		.st20a{fill:none;stroke:#193326;stroke-width:3;stroke-linecap:round;stroke-miterlimit:10;}
		.st21a{fill:#47CC8A;stroke:#193326;stroke-width:3;stroke-miterlimit:10;}
		.st22a{fill:#95E5BD;stroke:#193326;stroke-width:3;stroke-linecap:round;stroke-miterlimit:10;}
		.st23a{fill:url(#OVERLAY_13_);stroke:#193326;stroke-width:3;stroke-linecap:round;stroke-miterlimit:10;}
		.st24a{fill:none;stroke:#36805B;stroke-width:2;stroke-linecap:round;stroke-miterlimit:10;}
		.st25a{fill:#49F254;}
		.st26a{fill:#36805B;}
		.st27a{fill:url(#OVERLAY_14_);stroke:#193326;stroke-width:3;stroke-linecap:round;stroke-miterlimit:10;}
		.st28a{fill:url(#OVERLAY_15_);stroke:#193326;stroke-width:3;stroke-linecap:round;stroke-miterlimit:10;}
	</style>
	<g id="Mobile">
		<path id="Sticker" class="st6a" d="M16.6,196.8c-8,0-14.6-7.2-14.6-16v-164C2,8.6,8.5,2,16.6,2h77.7c8,0,14.6,6.6,14.6,14.8v164
			c0,8.8-6.5,16-14.6,16H16.6z"/>
		<g id="Bottom">
			<path id="Bottom_Bezel" class="st7a" d="M98.9,165.8v15c0,3.3-2.1,5.9-4.6,5.9H16.6c-2.5,0-4.6-2.7-4.6-5.9v-15H98.9z"/>
			<linearGradient id="OVERLAY_2_" gradientUnits="userSpaceOnUse" x1="29.2406" y1="148.562" x2="81.6477" y2="200.9691">
				<stop  offset="0.499" style="stop-color:#FFFFFF;stop-opacity:0.2"/>
				<stop  offset="0.5" style="stop-color:#000000;stop-opacity:0"/>
			</linearGradient>
			<path id="OVERLAY_5_" class="st8a" d="M98.9,165.8v15c0,3.3-2.1,5.9-4.6,5.9H16.6c-2.5,0-4.6-2.7-4.6-5.9v-15H98.9z"/>
			<line class="st9a" x1="46.9" y1="176.3" x2="64" y2="176.3"/>
		</g>
		<g id="Screen_1_">
			<rect x="12" y="22.3" class="st10a" width="86.9" height="143.6"/>
			<linearGradient id="OVERLAY_6_" gradientUnits="userSpaceOnUse" x1="-2.1686" y1="36.4025" x2="113.0586" y2="151.6296">
				<stop  offset="0.499" style="stop-color:#FFFFFF;stop-opacity:0.2"/>
				<stop  offset="0.5" style="stop-color:#000000;stop-opacity:0"/>
			</linearGradient>
			<rect id="OVERLAY" x="12" y="22.2" class="st11a" width="86.9" height="143.6"/>
		</g>
		<g id="Top">
			<path id="Top_Bezel" class="st7a" d="M98.9,16.8v5.4H12v-5.4c0-2.6,2-4.8,4.6-4.8h77.7C96.8,12,98.9,14.1,98.9,16.8z"/>
			<linearGradient id="OVERLAY_7_" gradientUnits="userSpaceOnUse" x1="31.8502" y1="-5.1068" x2="79.0382" y2="42.0812">
				<stop  offset="0.499" style="stop-color:#FFFFFF;stop-opacity:0.2"/>
				<stop  offset="0.5" style="stop-color:#000000;stop-opacity:0"/>
			</linearGradient>
			<path id="OVERLAY_4_" class="st12a" d="M98.9,16.8v5.4H12v-5.4c0-2.6,2-4.8,4.6-4.8h77.7C96.8,12,98.9,14.1,98.9,16.8z"/>
			<line id="Speaker" class="st13a" x1="41.1" y1="17.1" x2="69.8" y2="17.1"/>
		</g>
	</g>
</svg>