<?xml version="1.0" encoding="utf-8"?>
<!-- Generator: Adobe Illustrator 24.1.2, SVG Export Plug-In . SVG Version: 6.00 Build 0)  -->
<svg version="1.1" id="Layer_2" xmlns="http://www.w3.org/2000/svg" xmlns:xlink="http://www.w3.org/1999/xlink" x="0px" y="0px"
	 viewBox="0 0 228 174" style="enable-background:new 0 0 228 174;" xml:space="preserve">
	<style type="text/css">
		.st0{fill:#FFFFFF;stroke:#FFFFFF;stroke-miterlimit:10;}
		.st1{fill:#7B6AD4;stroke:#1E1933;stroke-width:3;stroke-miterlimit:10;}
		.st2{fill:none;stroke:#A395E5;stroke-width:2;stroke-linecap:round;stroke-miterlimit:10;}
		.st3{fill:none;stroke:#A395E5;stroke-width:3;stroke-linecap:round;stroke-miterlimit:10;}
		.st4{stroke:#1E1933;stroke-width:2;stroke-miterlimit:10;}
		.st5{fill:#FFFFFF;}
		.st6{fill:#423680;stroke:#1E1933;stroke-width:3;stroke-miterlimit:10;}
		.st7{fill:none;stroke:#1E1933;stroke-width:3;stroke-miterlimit:10;}
		.st8{fill:none;stroke:#7B6AD4;stroke-width:3;stroke-linecap:round;stroke-miterlimit:10;}
		.st9{stroke:#1E1933;stroke-width:3;stroke-miterlimit:10;}
		.st10{fill:none;stroke:#7B6AD4;stroke-width:2;stroke-linecap:round;stroke-miterlimit:10;}
		.st11{fill:#5D47CC;stroke:#1E1933;stroke-width:2.4803;stroke-miterlimit:10;}
		.st12{fill:none;stroke:#1E1933;stroke-width:2;stroke-linecap:round;stroke-miterlimit:10;}
		.st13{fill:#A395E5;stroke:#1E1933;stroke-width:3;stroke-miterlimit:10;}
		.st14{fill:#A395E5;stroke:#1E1933;stroke-width:2;stroke-miterlimit:10;}
		.st15{fill:none;stroke:#1E1933;stroke-width:3;stroke-linecap:round;stroke-miterlimit:10;}
		.st16{fill:#5544AB;stroke:#1E1933;stroke-width:3;stroke-miterlimit:10;}
		.st17{fill:#7B6AD4;stroke:#1E1933;stroke-width:3;stroke-linecap:round;stroke-miterlimit:10;}
		.st18{fill:none;stroke:#423680;stroke-width:2;stroke-linecap:round;stroke-miterlimit:10;}
		.st19{fill:#49F254;}
		.st20{fill:#423680;}
	</style>
	<g id="Desktop">
		<path id="Sticker_1_" class="st5" d="M95.4,17.4c0,4.1-3.3,7.4-7.4,7.4s-7.4-3.3-7.4-7.4C80.6,8.8,73.7,2,65.1,2H40.9
			c-8.6,0-15.5,6.9-15.5,15.5V65h-7.9C8.9,65,2,71.9,2,80.5v76c0,8.6,6.9,15.5,15.5,15.5h71c8.6,0,15.5-6.9,15.5-15.5v-10
			c0-25.1,20.4-45.5,45.5-45.5h0c25.1,0,45.5,20.4,45.5,45.5l0,9.5c0,8.7,7.2,16.2,15.9,16c4-0.1,7.8-1.7,10.6-4.6
			c2.9-2.9,4.5-6.8,4.5-10.9v-76c0-8.1-6.3-14.8-14.2-15.4c-3.1-4.3-8.1-7.1-13.8-7.1c-14.3,0-14.4-5.4-14.4-9V18.1
			c0-8.9-7.2-16.1-16.1-16.1h-56.1C102.6,2.1,95.4,8.5,95.4,17.4z"/>
		<rect id="Stand" x="134.9" y="51.5" class="st11" width="9.2" height="20"/>
		<path id="Keyboard" class="st6" d="M97.6,75v-1.5c0-3,2.5-5.5,5.5-5.5h72.7c3,0,5.5,2.5,5.5,5.5V75"/>
		<path id="Mouse" class="st6" d="M205,75h-14c0-3.9,3.1-7,7-7C201.8,68,205,71.1,205,75z"/>
		<g id="Computer">
			<path class="st6" d="M35.4,74V17.5c0-3,2.5-5.5,5.5-5.5h24.3c3,0,5.5,2.5,5.5,5.5V74"/>
			<path id="OVERLAY_1_" class="st7 svg-overlay" d="M35.4,74V17.5c0-3,2.5-5.5,5.5-5.5h24.3c3,0,5.5,2.5,5.5,5.5V74"/>
			<line class="st12" x1="40.5" y1="24.5" x2="65.5" y2="24.5"/>
			<line class="st12" x1="40.5" y1="34.5" x2="65.5" y2="34.5"/>
		</g>
		<g id="Monitor">
			<path id="Screen" class="st9" d="M105.4,18.1v30.8c0,3.3,2.7,6.1,6.1,6.1h23.8h32.3c3.3,0,6.1-2.7,6.1-6.1V18.1
				c0-3.3-2.7-6.1-6.1-6.1h-56.1C108.1,12.1,105.4,14.8,105.4,18.1z"/>
			<path id="OVERLAY_3_" class="st7 svg-overlay" d="M105.4,18.1v30.8c0,3.3,2.7,6.1,6.1,6.1h23.8h32.3c3.3,0,6.1-2.7,6.1-6.1V18.1
				c0-3.3-2.7-6.1-6.1-6.1h-56.1C108.1,12.1,105.4,14.8,105.4,18.1z"/>
		</g>
		<g id="Desk">
			<path class="st13" d="M216,80.5v76c0,1.5-0.6,2.9-1.6,3.9s-2.4,1.6-3.9,1.6c-3,0-5.5-2.5-5.5-5.5v-60c0-3-2.5-5.5-5.5-5.5h-100
				c-3,0-5.5,2.5-5.5,5.5v60c0,3-2.5,5.5-5.5,5.5h-71c-3,0-5.5-2.5-5.5-5.5v-76c0-3,2.5-5.5,5.5-5.5h193C213.5,75,216,77.5,216,80.5z
				"/>
			<path id="OVERLAY_2_" class="st13 svg-overlay" d="M216,80.5v76c0,1.5-0.6,2.9-1.6,3.9s-2.4,1.6-3.9,1.6c-3,0-5.5-2.5-5.5-5.5v-60
				c0-3-2.5-5.5-5.5-5.5h-100c-3,0-5.5,2.5-5.5,5.5v60c0,3-2.5,5.5-5.5,5.5h-71c-3,0-5.5-2.5-5.5-5.5v-76c0-3,2.5-5.5,5.5-5.5h193
				C213.5,75,216,77.5,216,80.5z"/>
			<line class="st12" x1="18.5" y1="100.5" x2="87.5" y2="100.5"/>
			<line class="st12" x1="18.5" y1="125.5" x2="87.5" y2="125.5"/>
			<circle class="st14" cx="53" cy="87.8" r="3"/>
			<circle class="st14" cx="53" cy="113" r="3"/>
			<circle class="st14" cx="53" cy="143.8" r="3"/>
		</g>
	</g>
</svg>
