<?xml version="1.0" encoding="utf-8"?>
<svg version="1.1" id="Layer_1" xmlns="http://www.w3.org/2000/svg" xmlns:xlink="http://www.w3.org/1999/xlink" x="0px" y="0px"
	 viewBox="0 0 387.81 98.86" style="enable-background:new 0 0 387.81 98.86;" xml:space="preserve">
	<g>
		<path class="st1" d="M76.72,8.82c0.72,0.43,1.26,0.98,1.6,1.66c0.34,0.68,0.28,1.49-0.19,2.43L67.31,28.28c-0.47,0.73-0.97,1.14-1.5,1.25
			c-0.53,0.11-1.18-0.07-1.95-0.54c-2.09-1.58-4.4-2.79-6.91-3.65c-2.52-0.85-5.18-1.28-8-1.28c-3.5,0-6.72,0.66-9.66,1.98
			c-2.94,1.32-5.48,3.14-7.62,5.44c-2.13,2.3-3.8,4.99-4.99,8.06c-1.19,3.07-1.79,6.36-1.79,9.86c0,3.5,0.6,6.77,1.79,9.82
			c1.19,3.05,2.86,5.72,4.99,8c2.13,2.28,4.67,4.09,7.62,5.41c2.94,1.32,6.17,1.98,9.66,1.98c2.82,0,5.5-0.44,8.06-1.31
			c2.56-0.87,4.89-2.1,6.98-3.68c0.77-0.47,1.41-0.66,1.92-0.58c0.51,0.09,1.02,0.47,1.54,1.15l10.94,15.74
			c0.47,0.94,0.53,1.73,0.19,2.37c-0.34,0.64-0.88,1.17-1.6,1.6c-4.01,2.69-8.33,4.77-12.96,6.24c-4.63,1.47-9.5,2.21-14.62,2.21
			c-4.52,0-8.86-0.58-13.02-1.73c-4.16-1.15-8.05-2.79-11.68-4.93c-3.63-2.13-6.92-4.68-9.89-7.65c-2.97-2.96-5.52-6.25-7.65-9.86
			c-2.13-3.6-3.78-7.49-4.93-11.65c-1.15-4.16-1.73-8.5-1.73-13.02c0-4.52,0.58-8.86,1.73-13.02c1.15-4.16,2.79-8.06,4.93-11.71
			c2.13-3.65,4.68-6.96,7.65-9.95c2.96-2.99,6.26-5.54,9.89-7.65c3.63-2.11,7.52-3.75,11.68-4.93c4.16-1.17,8.5-1.76,13.02-1.76
			c5.12,0,9.95,0.72,14.5,2.14C68.43,4.08,72.71,6.13,76.72,8.82z"/>
		<path class="st1" d="M151.54,8.82c0.72,0.43,1.26,0.98,1.6,1.66c0.34,0.68,0.28,1.49-0.19,2.43l-10.82,15.36c-0.47,0.73-0.97,1.14-1.5,1.25
			c-0.53,0.11-1.18-0.07-1.95-0.54c-2.09-1.58-4.4-2.79-6.91-3.65c-2.52-0.85-5.18-1.28-8-1.28c-3.5,0-6.72,0.66-9.66,1.98
			c-2.94,1.32-5.48,3.14-7.62,5.44c-2.13,2.3-3.8,4.99-4.99,8.06c-1.19,3.07-1.79,6.36-1.79,9.86c0,3.5,0.6,6.77,1.79,9.82
			c1.19,3.05,2.86,5.72,4.99,8c2.13,2.28,4.67,4.09,7.62,5.41c2.94,1.32,6.17,1.98,9.66,1.98c2.82,0,5.5-0.44,8.06-1.31
			c2.56-0.87,4.89-2.1,6.98-3.68c0.77-0.47,1.41-0.66,1.92-0.58c0.51,0.09,1.02,0.47,1.54,1.15l10.94,15.74
			c0.47,0.94,0.53,1.73,0.19,2.37c-0.34,0.64-0.88,1.17-1.6,1.6c-4.01,2.69-8.33,4.77-12.96,6.24c-4.63,1.47-9.5,2.21-14.62,2.21
			c-4.52,0-8.86-0.58-13.02-1.73c-4.16-1.15-8.05-2.79-11.68-4.93c-3.63-2.13-6.92-4.68-9.89-7.65c-2.97-2.96-5.52-6.25-7.65-9.86
			c-2.13-3.6-3.78-7.49-4.93-11.65c-1.15-4.16-1.73-8.5-1.73-13.02c0-4.52,0.58-8.86,1.73-13.02c1.15-4.16,2.79-8.06,4.93-11.71
			c2.13-3.65,4.68-6.96,7.65-9.95c2.96-2.99,6.26-5.54,9.89-7.65c3.63-2.11,7.52-3.75,11.68-4.93c4.16-1.17,8.5-1.76,13.02-1.76
			c5.12,0,9.95,0.72,14.5,2.14C143.25,4.08,147.53,6.13,151.54,8.82z"/>
		<path class="st1" d="M165.04,16.18c0-0.85,0.24-1.54,0.71-2.05c0.47-0.51,1.18-0.77,2.12-0.77h16.94c0.73,0,1.4,0.26,2.02,0.77
			c0.62,0.51,0.93,1.19,0.93,2.05v15.49c0,0.77-0.25,1.45-0.74,2.05c-0.49,0.6-1.23,0.9-2.21,0.9h-16.94c-1.88,0-2.82-0.98-2.82-2.94
			V16.18z M165.04,67.06c0-0.85,0.24-1.54,0.71-2.05c0.47-0.51,1.18-0.77,2.12-0.77h16.94c0.73,0,1.4,0.26,2.02,0.77
			s0.93,1.19,0.93,2.05v15.49c0,0.77-0.25,1.45-0.74,2.05c-0.49,0.6-1.23,0.9-2.21,0.9h-16.94c-1.88,0-2.82-0.98-2.82-2.94V67.06z"/>
		<path class="st1" d="M192.31,4.73c-0.09-0.08-0.13-0.19-0.13-0.32s-0.04-0.3-0.13-0.51c0-0.73,0.34-1.24,1.02-1.54c0.68-0.3,1.45-0.45,2.3-0.45
			h17.73c1.07,0,1.93,0.28,2.59,0.83c0.66,0.56,1.16,1.22,1.5,1.98l40.45,89.41c0.04,0.77,0.13,1.15,0.26,1.15
			c0,1.11-0.9,1.66-2.69,1.66h-19.14c-0.9,0-1.57-0.2-2.02-0.61s-0.91-1.14-1.38-2.21L192.31,4.73z"/>
		<path class="st1" d="M272.31,15.19c0.47-0.47,0.96-0.92,1.47-1.34c0.51-0.43,1.19-0.64,2.05-0.64c0.6,0,1.15,0.23,1.66,0.7
			c0.51,0.47,1,0.92,1.47,1.34l32.13,32.06c0.64,0.64,0.96,1.3,0.96,1.98c0,0.6-0.32,1.22-0.96,1.86l-33.47,33.6
			c-0.6,0.6-1.26,0.9-1.98,0.9c-0.73,0-1.32-0.3-1.79-0.9l-10.5-10.24c-0.73-0.73-1.09-1.47-1.09-2.24c0-0.64,0.28-1.3,0.83-1.98
			l20.99-21.06l-20.99-21.06c-0.47-0.73-0.73-1.39-0.77-1.98c0.04-0.72,0.36-1.39,0.96-1.98L272.31,15.19z"/>
		<path class="st0" d="M322.67,82.29c0-1.88,0.94-2.82,2.82-2.82h59.01c0.77,0,1.43,0.25,1.98,0.74c0.55,0.49,0.83,1.18,0.83,2.08
			v11.58c0,0.3-0.06,0.63-0.19,0.99c-0.13,0.36-0.32,0.69-0.58,0.99c-0.26,0.3-0.55,0.55-0.9,0.77c-0.34,0.21-0.73,0.32-1.15,0.32
			h-59.01c-1.88,0-2.82-1.02-2.82-3.07V82.29z"/>
	</g>
</svg>
