<?xml version="1.0" encoding="utf-8"?>
<!-- Generator: Adobe Illustrator 24.1.2, SVG Export Plug-In . SVG Version: 6.00 Build 0)  -->
<svg version="1.1" id="Layer_2_1_" xmlns="http://www.w3.org/2000/svg" xmlns:xlink="http://www.w3.org/1999/xlink" x="0px" y="0px" viewBox="0 0 292.7 474.2" style="enable-background:new 0 0 292.7 474.2;" xml:space="preserve">
	<style type="text/css">
		.st0{fill:#FFFFFF;}
		.st1{fill:#735838;}
		.st2{fill:#4C3516;}
	</style>
	<g id="Whole_Thing">
		<path class="st0" d="M132.6,473.2c-1.1,0-2.3-0.2-3.3-0.5c-1.2-0.1-2.3-0.4-3.4-0.8c-0.7,0.1-1.4,0.2-2.2,0.2c-1,0-2.1-0.1-3.1-0.4
			c-0.2-0.1-0.4-0.1-0.6-0.2c-0.6,0.1-1.3,0.2-2,0.2c-0.8,0-1.6-0.1-2.3-0.3c-0.1,0-0.1,0-0.2,0c-1.5-0.4-2.8-1-3.9-1.9
			c-3.2-0.4-6.1-1.8-8.2-4.1c-0.1-0.1-0.2-0.2-0.3-0.3c-0.2-0.2-0.4-0.5-0.5-0.7c-1.3-0.6-2.5-1.4-3.5-2.4c-1.9-0.5-3.4-1.4-4.4-2.2
			c-0.7-0.6-1.3-1.2-1.8-1.8c-2.9-1.2-4.7-3.3-5.6-5.5c-1.2-1.4-1.8-2.9-2.2-4.1c-4.2-1.6-7.2-5.3-7.4-9.6c-0.4-0.7-0.7-1.4-0.9-2.2
			c-0.6-0.8-1.1-1.6-1.5-2.4c-0.7-0.7-1.3-1.5-1.7-2.2c-0.3-0.2-0.5-0.3-0.8-0.5c-3.1-2.2-4.2-5.2-4.9-7l-0.1-0.2
			c-2.9-2.1-4-5-4.5-6.3c-0.1-0.1-0.1-0.3-0.1-0.4c-0.8-0.3-1.6-0.7-2.4-1.3c-2-1.4-3.6-3.4-4.5-5.8c-0.6-0.6-1.4-1.4-2.4-2.4
			c-2-2-4.1-4.2-6.4-7.3c0,0,0-0.1-0.1-0.1c-0.6-0.9-1-1.4-1.3-2c-0.2-0.3-0.4-0.7-1-1.5c-1.3-1.9-1.9-2.6-2.5-3.3
			c-0.9-1.1-1.7-2-2.8-3.7c-0.6-0.9-1.1-1.8-1.5-2.5c-0.7-0.3-1.4-0.7-2.1-1.2c-2.7-1.9-4-4.4-4.6-6.2c-0.8-0.7-1.5-1.4-2-2.3
			c-0.1-0.1-0.1-0.2-0.2-0.3c-1.6-1.3-3.1-3.4-3.8-6.6l0,0c0-0.2-0.1-0.3-0.1-0.5c-0.6-2.7-0.9-3.9-1.2-4.9c0-0.1,0-0.1-0.1-0.2
			c-3.1-3.4-4.4-8.9-5-13.7c0-0.1,0-0.3-0.1-0.4c-2.2-2.5-2.5-5.4-2.5-7c-1.5-1.8-2.5-4.1-2.6-6.7c-0.2-2.1-0.1-4.2,0.5-6.4
			c0-0.1,0.1-0.3,0.1-0.4c0.1-0.9,0.4-3,0.6-5l0-0.2c-1.2-1.7-2-3.8-2.1-6.4c0-0.4-0.1-0.8-0.1-1.2c-0.1-1.1-0.2-2.4-0.2-3.9
			c0,0,0-3-0.2-7.5c0-1.4-0.1-2-0.3-3.3c-0.1-1.1-0.4-2.5-0.6-4.7c-1-9-1.5-13.5-1-17.3c0,0,0,0,0,0c0,0,0.1-1.1,0.1-2.7
			c-1.2-2-1.7-4.7-1.6-7.9c0.1-2.7,0.2-4.3,0.3-5.5c0.1-0.8,0.1-1.1,0.1-1.6c0-1,0-3.3-0.4-4.8c-0.3-0.9-1-3.9-0.6-7.8
			c0.1-1.9,0.8-3.5,1.3-4.5c0.3-0.5,0.6-1.1,0.9-1.5c-3.5-1.7-9.9-5.2-9.9-13.3v-6.4c0-5.7,3.5-8.9,7.5-10.8c-2-21.1-1-44.3,2.8-64.9
			c2.2-11.9,5.2-24.3,11.5-35.5c-2.5-2.4-3.9-4.9-4.7-7c-1-2.5-4-11.5-0.3-19.7c1.6-3.7,5.2-6,9.1-6c0.3,0,0.6,0,0.9,0
			c0.4-2.1,0.8-4,1.2-5.4C27.1,60.2,32.4,45.4,43.6,35c5.5-5.1,13.5-7.7,19.1-8.9c4-8.6,11.8-16.3,22.5-17.2
			c7.7-4.6,16.6-7.2,25.4-7.2c2.1,0,4.2,0.2,6.2,0.5c3-0.8,6.3-1.2,9.9-1.2c6.3,0,12.6,1.2,17.6,2.2l2,0.4
			c22.1,4.2,36.5,15.8,51.5,28.2c20.8,11.7,35.2,28,44.9,51c21.9,17.7,35.4,42.9,39.2,73c2.3,17.3,2.7,36.8,1.2,57.9
			c3.8,1.4,6.8,3.7,8,7.8c0.3,1,0.4,1.9,0.4,2.9v6.4c0,7.3-5.2,10.9-9.1,12.9c0.1,1.1,0.2,2.3,0.1,3.6c0,1.7-0.3,2.8-0.4,3.5
			c0,0,0,0.1,0,0.2c0,0.1,0.1,0.4,0.1,0.7c0.1,0.3,0.1,0.7,0.2,1c0.5,2.7,0.2,4.5-0.2,7.9c-0.2,1.3-0.4,3.2-0.7,5.7
			c-0.1,1.1-0.2,1.9-0.3,2.7c-0.1,0.9-0.2,1.9-0.3,2.3c0,0.1,0,0.3,0,0.4c-0.1,1.4-0.1,3.1-0.2,4.7c-0.1,4.3-0.2,7.8-1.1,10.7
			c0.1,0.7,0.1,1.3,0.2,1.8c0,0,0,0.6,0,0.7c0.1,2.5-0.3,4.9-0.7,6.8c-0.1,0.3-0.1,0.6-0.2,0.9c-0.1,0.8-0.2,3.2-0.3,5.8
			c-0.1,2.2-0.1,3.6-0.2,4.3c0,0.2,0,0.5,0,0.7c0.2,2.7,0.4,6.8-1.5,10.6c0,0,0,0.2,0,0.3c0.3,2.8-0.3,4.9-0.6,5.8
			c-0.3,0.9-0.6,2.7-0.7,3.4c0,0.1,0,0.2,0,0.2c0,0.1,0,0.2,0,0.2l0,0.1c0.1,1.7,0.1,3.7-1.1,6.3c0.1,3.5-1.1,6.1-1.8,7.4
			c0,0.8-0.1,1.8-0.3,3.1c-0.1,0.7-0.2,1.2-0.3,1.7c-0.1,0.3-0.1,0.6-0.1,0.8c0.1,0.3,0.2,0.7,0.2,1.2c0,0.1,0,0.3,0.1,0.4
			c0.3,2.8-0.1,5.4-1.8,10.8c-0.1,0.2-0.1,0.3-0.2,0.5c-0.1,0.1-0.1,0.3-0.2,0.4c-1.1,3.1-2.7,4.9-4.4,6c-0.1,0.2-0.1,0.4-0.2,0.6
			c-0.6,1.5-1.9,4.7-4.6,6.9c-0.4,0.8-0.7,1.3-1,1.6c-0.1,0.2-0.3,0.5-0.9,1.5c0,0.1-0.2,0.3-0.2,0.4c-0.2,1.1-0.7,3.3-2.5,5.4
			c-0.1,0.1-0.2,0.2-0.3,0.3c-0.4,0.5-1.3,1.4-2.6,2.3c-0.7,1-1.4,1.8-2.2,2.4c-0.9,1.2-1.8,2.1-2.6,2.7c-0.3,0.4-0.6,1-1,1.6
			c-1,1.6-2.2,2.9-4.2,4.9l-0.7,0.7c-1.1,1.2-1.6,1.7-1.9,2c-0.1,0.1-0.2,0.2-0.2,0.3c-0.3,0.4-0.4,0.6-0.7,1.1
			c-0.6,1-1.5,2.5-3.3,4.3c-0.3,0.6-0.7,1.2-1.2,1.9c-1.1,1.5-2.4,2.5-3.5,3.1c0,0.1-0.1,0.1-0.1,0.2c-0.9,1.6-1.7,2.4-2.6,3.4
			c-0.5,0.5-1.2,1.3-2.7,3c-0.5,0.6-0.9,1-1.1,1.3c-0.3,0.9-0.9,2.1-2,3.6c-0.8,1.1-1.7,1.9-2.4,2.5c-1.7,3.9-4.7,6.6-8.5,9.9
			c-1,0.9-2.1,1.9-3.3,3c-1.7,1.6-4.5,4-5.5,5.1c-1,1.7-3.3,5.2-7.6,6.8c-0.8,1.1-1.9,2.2-3.4,3.1c-1,0.6-2,1.1-3.1,1.4
			c-0.8,0.8-1.8,1.7-3.1,2.5c-1,0.6-2,1.1-2.9,1.4c-1,1.3-2.6,2.9-5,4c-0.1,0-0.2,0.1-0.3,0.1c-1,0.5-1.8,0.7-2.4,0.8
			c-0.2,0-0.3,0.1-0.8,0.3c-0.7,0.3-1.1,0.4-1.5,0.6c-0.8,0.4-2,0.9-3.8,1.3c-1.1,0.3-2,0.4-2.7,0.5c0,0-0.1,0-0.1,0.1
			c-0.6,0.4-1.8,1.1-3.3,1.4c-0.3,0.2-0.7,0.3-1,0.5c-2.7,1.2-4.9,1.4-6.8,1.5c0,0-0.8,0.1-0.9,0.1c-0.7,0-1.3,0.1-1.8,0.1
			c0,0,0,0,0,0c-1.3,0.8-3.5,1.9-6.4,1.9c-0.7,0-1.4-0.1-2-0.2c-0.4,0.1-0.9,0.1-1.4,0.1c-0.4,0-0.7,0-1,0c-1,0.4-2.2,0.7-3.7,0.7
			c-0.4,0-0.8,0-1.2-0.1C136.2,472.7,134.5,473.2,132.6,473.2z"/>
		<path class="st0" d="M272.6,221.4c1.9-21.4,2.2-43.7-0.5-64.3c-3.4-26.7-15.2-50.8-37.6-68.1c-8.8-22-21.7-37.6-42.3-49
			c-15.3-12.6-28.2-23-47.7-26.7c-8.1-1.5-18.7-4-27-0.9c-10-2.2-21,0.8-29.2,6.4c-9.3-0.7-16.1,7.9-18.1,16c0,0-13.3,1.5-19.8,7.4
			C41,51.1,37.1,63.8,39.1,76.6c0,0-1.6,4.7-1.9,9.9s-1.1,10.7-4.6,10.7s-5.2-2.6-5.7-6c-1.6,3.6-0.8,8.5,0.5,12
			c1.4,3.5,4.7,5.9,9.7,7.3c-9.5,11.7-13.3,26.2-16,40.6c-4.1,22-4.8,47.6-1.7,70.4c-4.7,0.8-8.4,1.8-8.4,3.5v6.4
			c0,2.4,2.4,3.5,5.3,4.8c3,1.4,5.3,1.7,6.6,5.7c0.1,0.3,0.3,0.8,0.3,1.2c-0.1,2.4-0.2,4.6-0.3,6.9c-0.4-0.2-0.8-0.2-1.3-0.3
			c-0.6-0.1-1.4-0.2-2.2,0.4c-0.3,0.3-0.5,0.6-0.6,0.6c-0.2,0.3-0.3,0.7-0.3,0.8c-0.3,2.4,0.3,4.1,0.3,4.1c0.8,2.9,0.8,6.1,0.8,7.6
			c0,2.2-0.3,3-0.4,7.3c0,0-0.1,2.4,0.2,2.4c0.2,0,0.3-1.7,0.6-1.7c0.3,0,0.5,1.6,0.5,1.9c0.7,5.1,0.2,9,0.2,9c-0.3,2.6,0.1,6.8,1,15
			c0.5,4.9,0.8,5.5,0.9,8.7c0.2,4.7,0.2,7.9,0.2,7.9c0,1.6,0.3,3.2,0.3,4.7c0,0.3,0.1,0.9,0.2,0.9c0.2,0,0.3-1.1,0.4-1.9
			c0.3-1.8,0.3-2.5,0.7-4.1c0.2-0.7,0.3-1,0.3-1c0.4,0,1.3,5.9,0.6,12.2c-0.6,5.4-0.8,8.1-1.2,8.9c0,0.1-0.5,1.4-0.3,3
			c0,0.3,0.2,1.2,0.4,1.2c0.3,0,0.6-0.8,1.4-3c1.1-3,1.3-3.2,1.3-3.2c0.4,0.1-0.1,5.8-0.3,7.8c-0.2,1.4,0,2.8-0.1,4.2
			c0,0.1-0.1,1.1,0.1,1.1c0.3,0.1,0.5-2,1.2-2c0.3,0,0.7,0.6,0.7,0.6c0.3,0.6,0.1,1.3,0.1,1.4c-0.2,0.7,0,2.4,0.4,5.8
			c0.5,4.3,2.2,8.4,2.6,8.3c0.1,0,0.1-0.5,0-2.4c0-0.7-0.2-4.9,0-5c0.2,0,0.3,2.9,1.1,7.2c0.8,4.4,1,3.6,2.4,9.7
			c0.1,0.3,0.3,1.6,0.5,1.5c0.2,0,0.1-1.4,0.1-3.1c0-0.8-0.1-1.6,0-1.6s0.1,1.4,0.8,3c0.4,0.8,0.5,0.8,0.8,1.4c0.5,1.4,0,2.2,0.5,3
			c0.3,0.5,0.7,0.3,1.4,0.8c1.9,1.3,1.1,4,2.8,5.2c0.6,0.4,0.8,0.2,1.7,0.4c2.1,0.7,2.4,2.8,4.6,6.1c1.7,2.7,2,2.3,5.1,6.8
			c1.4,2.1,1.2,1.9,2.2,3.4c1.8,2.4,3.5,4.2,5.4,6.2c3.2,3.3,4.1,3.6,4.4,5.1c0.1,0.4,0.3,1.4,1.2,1.9c0.6,0.4,1,0.3,1.5,0.4
			c1.8,0.3,3,2.4,3.7,3.8c1.2,2.2,1.1,3.5,2.4,4.1c0.7,0.3,0.9,0,1.5,0.4c0.8,0.6,0.7,1.6,1.5,3.9c0.5,1.4,0.8,2.1,1.5,2.6
			c0.8,0.7,1.3,0.3,2,0.8c1.2,0.9,0.7,2.1,1.9,3.1c0.7,0.5,1,0.3,1.4,0.9c0.5,0.8,0.1,1.4,0.6,2c0.5,0.6,1.4,0.1,1.8,0.7
			c0.7,0.8-0.5,2.4,0.3,3.2c0.6,0.8,1.7,0.1,2.3,0.8c0.4,0.6,0.3,1.6-0.2,2.3c-0.4,0.6-1.1,0.5-1.1,0.8s0.8,0.9,1.8,1
			c1.6,0.1,2.9-1.4,3.1-1.2c0.2,0.2-0.4,0.7-0.4,1.7c0,0.8,0.4,1.5,0.6,1.8c0.6,0.9,1.4,1.4,1.7,1.5c0.8,0.4,1.3,0.3,1.4,0.7
			c0.2,0.6-1.2,1.1-1.1,1.9s1.5,1.2,2.1,1.4c1.4,0.4,2.5,0.3,2.5,0.4c0,0.3-2.9,0.6-2.9,1.2c0,0.4,1.7,0.3,3.1,1.5
			c0.9,0.8,0.6,1.3,1.4,1.9c1.7,1.4,4.1-0.3,5,0.8c0.5,0.7-0.3,1.4,0.3,2.2c0.8,1,2.5,0,3.6,1.2c0.8,0.8,0.2,1.6,1,2.6
			c0.8,0.9,2.1,0.9,2.4,0.9c0.3,0,1.3,0,2.1-0.7c0.8-0.7,1-1.6,1.3-1.5c0.3,0.1-0.1,1.4,0.6,3.1c0.3,0.7,0.4,1.1,0.8,1.2
			c1.1,0.3,2.1-3.6,3.7-3.5c0.6,0.1,1.2,0.7,1.2,1.2c0,0.7-0.8,0.9-0.8,1.6c0.1,0.5,0.8,0.9,1.2,1c1.1,0.3,2.6-0.5,3.1-1.7
			c0.2-0.3,0.3-0.7,0.5-0.7s0.3,0.5,0.8,0.8c0.6,0.3,1.4,0.1,1.5,0.1c0.6-0.3,1-0.7,1-0.7c0.1,0.1-1.5,1.4-1.3,2.2
			c0.2,0.5,1,0.8,1.5,0.8c1.2,0,2-0.9,2.2-1.2c0.7-0.8,0.8-1.5,0.8-1.5c0.2,0.1,0.2,1.4-0.6,2.4c-0.3,0.4-0.6,0.6-0.5,0.7
			c0.1,0.2,1.2-0.1,2.2-0.6c1.4-0.7,1.5-1.4,3-2.2c1.1-0.7,2-0.8,2-0.8c0.1,0.2-1.6,0.9-1.6,1.9c0,0.3,0.3,0.6,0.5,0.8
			c0.5,0.2,0.8-0.4,1.9-0.8c0.3-0.1,0.9-0.3,1.7-0.2c0.8,0.1,0.8,0.3,1.3,0.3c0.8,0,0.9-0.5,1.6-0.5c0.6,0,0.8,0.3,1.4,0.5
			c1.4,0.5,2.3-1.2,4.6-1.8c1.2-0.3,0.9,0.1,3.5-0.1c2-0.2,3-0.2,4.3-0.8c0.6-0.3,2.6-1.2,3.5-3.4c0.2-0.4,0.2-0.8,0.3-0.8
			c0.1,0,0.2,1.2-0.3,2.1c-0.3,0.7-0.8,0.9-0.8,1c0.1,0.2,1.4-0.9,3.2-1.5c1.4-0.4,1.4,0,3-0.4c1.5-0.3,1.7-0.7,4.1-1.6
			c1.9-0.7,1.9-0.5,2.6-0.8c2.3-1.1,1.9-3,4-4.1c1.4-0.8,1.8,0,3.1-0.8c1.7-1,1.5-2.4,3.2-3.3c1.4-0.7,1.9,0.1,3-0.6
			c1.8-1.1,1.4-3.5,2.9-4.1c0.8-0.3,1,0.3,1.9,0.2c1.7-0.3,2.7-2.4,3.2-3.2c0.3-0.7,2.5-2.7,7-6.8c5.2-4.7,8.5-7.2,9.5-9.7
			c0.1-0.3,0.5-1.3,1.4-2.4c0.7-0.9,1.4-0.9,2.1-1.9c0.5-0.7,0.6-1.1,0.8-1.8c0.3-0.7,0.6-1.3,2.5-3.5c3.5-4.1,3.5-3.6,4.3-5.1
			s0.9-2.1,1.9-2.8c0.8-0.6,1.7-0.6,2.4-1.5c0.3-0.4,0.3-0.7,0.8-1.4c0.6-0.8,1.1-1.4,1.4-1.7c1.6-1.5,1.6-2.5,3.5-4.7
			c0.7-0.8,0.4-0.4,2.5-2.6c2.1-2.2,3.2-3.3,3.7-4.1c1.3-1.9,1.2-2.6,2.4-3.5c0.6-0.4,1.3-0.7,1.6-1.4c0.3-0.5,0.3-1,0.7-1.4
			c0.4-0.3,0.7-0.1,1-0.3c0.8-0.5,0.3-1.7,1-2.3c0.3-0.3,0.5,0,1.2-0.3c0.1,0,0.8-0.3,1.4-0.9c0.7-0.8,0.3-1.4,1-3
			c0.1-0.3,0.3-0.7,0.8-1.5c1.4-2.4,1.4-2.2,1.7-2.8c0.5-1.6-0.2-2.5,0.5-3.2c0.4-0.3,0.7-0.2,1.3-0.6c0.9-0.7,1.1-1.8,1.3-1.7
			s-0.6,2.2-0.4,2.3s0.9-1.2,1.5-2.7c0.4-1,0.6-2.2,1.1-4.6c0.3-1.2,0.4-1.9,0.5-1.9c0.3,0,0.2,2.5,0.5,2.6c0.1,0,0.2-0.1,0.3-0.6
			c0.5-1.5,0.2-2.6,0.2-4.3c0-0.8,0-3.1,0.9-3.5c0,0,0.3-0.1,0.5,0c0.7,0.3,0.6,1.9,0.5,3.4c-0.1,1.3-0.3,2.4-0.3,2.4
			c-0.1,0.7-0.3,1.2-0.2,1.2s0.3-0.8,0.6-1.5c1.5-4.8,1.5-5.9,1.4-6.6c-0.2-1-0.3-0.8-0.3-1.9c-0.2-1.8,0.2-2.8,0.5-5
			c0.5-3.4,0-2.9,0.4-4.1c0.7-2.1,1.8-3,1.6-4.7c-0.1-0.6-0.2-0.8-0.2-1.4c0.1-1.2,0.6-1.9,1-2.7c0.6-1.3,0-1.4,0.3-4
			c0.1-0.8,0.5-3.5,1.1-5.4c0.1-0.3,0.3-0.8,0.2-1.4c-0.1-0.6-0.3-0.7-0.6-1.3c-0.3-0.9,0.3-1.2,0.2-2.9c0-0.5-0.1-0.7,0-1.1
			c0.1-0.6,0.3-0.8,0.3-1.4c0-0.5-0.2-0.8-0.1-0.9c0.1,0,0.3,0.3,0.4,0.8c0.1,0.3,0.2,0.6,0.2,1s-0.2,0.8-0.2,0.8
			c0.1,0,0.4-0.6,0.6-0.8c1-1.8,0.6-4.7,0.5-7c0-0.2,0.1-1.6,0.2-4.6c0.2-4.1,0.3-6.1,0.3-6.8c0.3-2,0.8-4.1,0.8-5.9
			c-0.1-1.2-0.1-1.8-0.3-2.4c-0.2-0.3-0.3-0.7-0.3-1.1c0-0.8,0.4-1.4,0.5-1.5c1.2-1.7,0.8-8.6,1.2-14c0-0.8,0.3-2.4,0.7-5.9
			c1-8.4,1.4-9,1-10.9c-0.2-1.3-0.6-2.7-0.3-4.7c0.1-0.8,0.3-1.3,0.3-2.4c0.1-1.4-0.1-3.4-0.5-3.5c-0.3,0-0.3,0.5-1,1.2l0,0
			c0-2.1,0-4.1-0.1-6.1c1.4-1.6,3.1-2.1,5.2-3c3-1.4,5.3-2.4,5.3-4.8v-6.4C281.4,223.3,277.5,222.2,272.6,221.4z"/>
	</g>
	<path class="st0" d="M28.7,160.7c-6.6,34.5-11.5,33.5-7.2,60.5s-0.9,24.6,2.8,56.7s8.2,83.1,17.1,94.5c9,11.4,67.1,79.7,105,79.7
		c34.5,0,99.4-63.4,110.8-99.4c8.6-27.2,15.3-92.1,13.3-120c-2.6-34.7,5.7-13.8-1.5-51.3s-18.2-100-112.4-98
		c-94.2,2-106.6,33.8-119.3,58.3S28.7,160.7,28.7,160.7z"/>
	<g>
		<path id="Hair_1_" class="st1" d="M271.9,228.1c2.5-23.5,3.1-48.1,0.2-71c-3.4-26.7-15.2-50.8-37.6-68.1c-8.8-22-21.7-37.6-42.3-49
			c-15.3-12.6-28.2-23-47.7-26.7c-8.1-1.5-18.7-4.1-27-0.9c-10-2.2-21,0.8-29.2,6.4c-9.3-0.7-16.1,7.9-18.1,16c0,0-13.3,1.5-19.8,7.4
			C41,51.1,37.1,63.8,39.1,76.6c0,0-1.6,4.7-1.9,9.9s-1.1,10.7-4.6,10.7s-5.2-2.6-5.7-6c-1.6,3.6-0.8,8.5,0.5,12
			c1.4,3.5,4.8,5.9,9.7,7.3c-9.5,11.7-13.3,26.2-16,40.6c-4.4,24.1-4.9,52.3-0.8,76.5c2.4,13.7,4.4,4.6,3.9-4.6
			c-0.5-8.4-1.7-16.6-0.3-24.5c2.4-13.8,15.6-26.8,20-40.5c2.4-7.4,1.7-16.6,3.7-24.1c1.9-7.3,5.6-15.5,10.6-21.7
			c10.4-0.7,20.6-4.9,29.8-9.5c0,0,3,4,17.4,5.8c11,1.4,22.1-1.9,32.5-1.5c5.6,0.3,11.5,5.7,19.8,4.6c14-1.7,26.9-12.9,41.5-13.9
			c10.7-0.8,21.7,1.6,30,9.1c10.9,9.9,15.7,22.8,17.1,36.6c1,11.2,4.8,21.8,10.4,31.8c5.7,10.1,13,20.9,12.2,32.9
			c-1.1,15.1-0.5,14.7-1.2,19.8S271,236.6,271.9,228.1z"/>
	</g>
	<g id="Glasses_1_">
		<g>
			<path d="M169.4,218.5c5.8-1.9,14.2-2.4,43.5-2.4s38.9,2.6,47.7,3.8c8.8,1.2,20.7,2,20.7,5.2c0,2.4,0,4,0,6.4s-2.4,3.5-5.3,4.8
				c-3,1.4-5.3,1.7-6.6,5.7c-1.2,4-4.6,17.9-6,21.9c-1.4,4-3.6,10.7-13.1,12.4s-59.8,2-69.8,1.2c-10-0.8-17.7-9-20-15.5
				s-3.5-11.3-4.9-16.6c-1.4-5.3-4.1-7.3-9.4-7.3v-14.9C157,223.1,164.5,220.1,169.4,218.5z M161.3,240.3c1.3,10.9,5,18.5,7,22.7
				c2,4.2,3.2,6.3,11.4,8s48.6,2.5,63.9,1.4c10.7-0.8,11.2-3.9,13.7-10.7c2.4-6.8,3.8-14.9,3.2-25.4c-0.4-7.4-6.2-11.6-12.8-13.3
				c-6.7-1.6-54.2-4.1-69.3-1.2C163.3,224.9,160,229.4,161.3,240.3z"/>
			<path d="M123.1,218.5c-5.8-1.9-14.2-2.4-43.5-2.4s-38.9,2.6-47.7,3.8s-20.7,2-20.7,5.2c0,2.4,0,4,0,6.4s2.4,3.5,5.3,4.8
				c3,1.4,5.3,1.7,6.6,5.7c1.2,4,4.6,17.9,6,21.9c1.4,4,3.6,10.7,13.1,12.4s59.8,2,69.8,1.2c10-0.8,17.7-9,20-15.5
				c2.3-6.6,3.5-11.3,4.9-16.6c1.4-5.3,4.1-7.3,9.4-7.3v-14.9C135.5,223.1,128,220.1,123.1,218.5z M131.2,240.3
				c-1.3,10.9-5,18.5-7,22.7c-2,4.2-3.2,6.3-11.4,8s-48.6,2.5-63.9,1.4c-10.7-0.8-11.2-3.9-13.7-10.7c-2.4-6.8-3.8-14.9-3.2-25.4
				c0.4-7.4,6.2-11.6,12.8-13.3c6.7-1.6,54.2-4.1,69.3-1.2C129.2,224.9,132.4,229.4,131.2,240.3z"/>
		</g>
	</g>
	<g id="Moustache">
		<path class="st2" d="M71.5,353.3c0,1.2,0.1,5.2,1.5,8.5c0.5,1.3,0.8,2.1,1.6,3.1c0.4,0.6,0.8,0.8,1,1.5c0.6,1.1,0.1,1.4,0.6,2.6
			c0.2,0.3,0.5,1.4,1.5,2.2c0.5,0.4,0.6,0.3,0.9,0.7c0.6,0.7,0.3,1.2,0.8,2.1c0.3,0.6,0.8,0.9,1,1.1c0.8,0.6,1,0.3,1.5,0.8
			c0.8,0.7,0.3,1.4,1.1,2.5c0.4,0.5,0.8,0.7,0.9,1.3c0.1,0.4-0.1,0.6,0.1,0.9c0.2,0.5,0.7,0.4,1.2,0.8c0.8,0.6,0.4,1.2,1.3,2.3
			c0.6,0.8,1.3,1.3,1.4,1.2c0.2-0.2-1.9-2.4-1.3-3.5c0-0.1,0,0,0.6-0.6c0.8-0.7,1.1-1,1.2-1.2c0.3-0.5,0.5-1.4,0.2-1.9
			c-0.3-0.6-1-0.8-1-0.8c-0.1,0.1,0.3,0.3,0.3,0.7c0,0.3-0.5,0.8-0.8,0.8c-0.3,0-0.3-0.3-0.8-1.3c-0.4-0.8-0.6-1.4-0.8-1.7
			c-0.3-0.9-0.3-1.1-0.8-2c-0.3-0.8-0.4-1.1-0.7-1.4c-0.3-0.6-0.4-0.5-0.7-0.8c-0.5-0.8-0.1-1.4-0.6-2.6c-0.2-0.5-0.3-0.4-0.5-1.1
			c-0.4-0.9-0.4-1.7-0.5-2.2c-0.3-2.4-1.5-2.4-1.5-4.2c0-0.4,0-1.6,0.8-2.7c0.4-0.5,0.8-0.7,0.8-1.2c0.1-0.8-0.5-1-0.8-1.9
			c-0.3-1.1,0.1-2.3,0.7-3c0.5-0.6,0.8-0.3,1.6-1.2c0.8-0.8,1-1.4,1.5-1.4c0.4,0,0.7,0.5,0.8,0.9c0.2,0.7-0.3,1.2-0.2,1.5
			c0.2,0.3,0.8,0.3,1.3,0c1.3-0.8,0.3-3.4,1.6-4.1c0.1-0.1,0.5-0.3,1-0.3c0.6,0.1,0.8,0.6,1,0.6c0.5-0.1,0.3-1.5,1-1.9
			c0.4-0.2,1.1,0.1,1.4,0.6c0.5,0.9-0.5,2.4-0.3,2.5c0.3,0.2,0.9-0.5,1.3-0.8c3.5-3.2,4.4-3.7,4.9-3.5c0.3,0.2,0.3,0.6,0.8,0.8
			c0.1,0.1,0.8,0.3,1.3,0.2c0.8-0.3,0.5-1.6,1.3-1.9c0.3-0.2,0.5,0.1,1-0.1c0.8-0.2,0.8-0.7,1.3-0.8c0.6,0,0.7,0.7,1.5,0.8
			c0.6,0.2,0.8-0.2,1.2,0.1c0.7,0.3,0.5,1,1.1,1.3c0.4,0.2,0.7-0.2,2.3-0.6c1-0.3,1-0.2,1.4-0.4c1.1-0.6,1.1-1.7,1.5-1.7
			c0.6,0,0.5,2.3,1.5,2.7c0.3,0.1,0.6,0,3.3-1.4c1.3-0.7,1.9-1,2.3-0.8c0.6,0.3,0.5,1.4,0.8,1.4c0.3,0,0.6-1.2,1.1-1.2
			c0.3,0,0.3,0.3,0.7,0.4c0.5,0.1,0.8-0.7,1.6-0.8c0.1,0,0.7-0.2,1.2,0.2c0.3,0.2,0.3,0.4,0.6,0.7c0,0,0.5,0.5,0.8,0.5
			c1.2,0,1.3-2.4,2.7-2.7c0.4-0.1,1.3-0.1,1.9,0.3c0.3,0.3,0.5,0.5,0.8,0.4c0.4-0.1,0.6-0.9,0.7-1.3c0-0.1,0.8-1.4,2.3-4.2
			c1.2-2.2,2.3-4.1,2.5-4.1c0.2,0.1-0.3,1.2-0.9,3.3s-1,3.8-0.4,4.2c0.3,0.2,0.8-0.1,1.2-0.3c2.1-1.2,3.4-4.1,3.1-5.8
			c-0.2-1.2,1.5-2.4,1.1-0.4c-0.3,1.7,0.1,2-0.3,3.5c-0.4,1.6-1.1,2.4-1,2.5c0.2,0.2,1.6-1.1,2.5-2.5c2.7-4.1,1.7-10,0.6-10.2
			c-0.5-0.1-0.8,1.1-1.9,1.1c-1.1,0-1.5-1.5-2.4-1.5c-0.8,0-1,1.2-2,2.4c-1.9,2.1-4.6,2.6-4.6,2.6c0,0,0.8-0.3,1.8-1
			c1.1-0.9,1.6-1.9,1.8-2.4c0.3-0.7,0.8-1.8,0.3-3c-0.2-0.6-0.6-1.2-0.7-1.1c-0.1,0,0.3,0.6,0.1,1.3c-0.3,0.9-1.5,1.8-2.6,1.6
			c-0.8-0.2-0.8-0.8-1.9-1.2c-0.9-0.3-1.3-0.2-1.6-0.6c-0.6-0.8,0.2-2.1-0.1-2.2c-0.3-0.1-0.9,1.6-2.7,2.5c-0.7,0.3-1,0.3-1.1,0.3
			c-0.8-0.3-0.5-1.6-1.1-1.9c-1.1-0.6-3.8,3-4.4,2.7c-0.3-0.2,0.2-1.3-0.1-1.4c-0.4-0.3-1.8,2.5-3.7,2.5c-0.8,0-0.8-0.3-1.4-0.3
			c-1.9,0.3-2.4,4.3-3,4.2c-0.6-0.1-0.2-4.4-1.2-4.6c-0.5-0.2-1.2,0.9-1.3,0.9c-0.9,1.4-0.1,3-0.8,3.5c-0.6,0.4-1.9-0.2-2.6-0.4
			c-0.6-0.3-0.8-0.4-1.1-0.3c-0.5,0.2-0.3,1-0.7,1.9c-0.5,1.3-1.8,2-2,1.9c-0.3-0.2,0.3-0.8-0.1-1.1c-0.4-0.4-2.3,0.9-2.7,1.3
			c-1.4,1.1-2,1.9-2.3,1.9c-0.4-0.3,2.1-4.1,1.4-4.6c-0.6-0.5-4.1,1.7-4.9,3.8c0,0.1-0.2,0.5-0.3,0.5c-0.3-0.1,0.6-3.8-0.3-4.3
			c-0.6-0.3-1.8,0.7-2.4,1.5c-0.8,1.1-0.8,2.2-1.4,2.3c-0.4,0.1-0.7-0.5-1.1-0.4c-0.5,0.2-0.4,0.8-0.9,1c-0.5,0.2-0.8-0.6-1.4-0.6
			c-0.9,0.1-0.8,2.3-2.5,3.5c-0.2,0.2-1.3,0.9-2.4,0.8c-1.4-0.2-1.5-1.4-2.5-1.4c-1.7,0-3,3.6-3,4.1c-0.3,0.8-0.6,1.8-0.5,3
			c0.1,0.6,0.2,1.2,0.1,1.2c-0.3,0.1-0.8-2.4-1.8-2.5c-0.6,0-1,0.8-1.4,1.6C71.6,349,71.5,351.9,71.5,353.3z"/>
		<path class="st2" d="M146.8,325c-0.8,0.3,0.1,4.3,0.9,6.9c1.1,3.4,2.6,6,3.1,5.8c0.4-0.2-0.6-3,0.4-3.7c0.6-0.3,1.5,0.1,2,0.4
			c0.9,0.7,1,1.6,1.5,1.7c0.5,0,0.7-0.8,1.2-0.8c0.8-0.1,1.4,1.6,2.6,3.6c1.2,1.9,3,4.1,3.5,3.7c0.5-0.3,0-2,0.6-2.3
			c0.3-0.2,0.8,0.3,1.3,0.7c1.2,1,3.5,2.6,4.1,2.2c0.4-0.3-0.3-1.9,0-2s0.8,1.1,1.9,1.5c1.5,0.5,2.9-1,3.5-0.4
			c0.5,0.4,0.1,1.5,0.3,1.6c0.4,0.1,1.4-3.5,2.2-3.3c0.4,0.1,0.3,1,1,2.2c0.9,1.6,2.7,2.6,3.1,2.3c0.1-0.1,0.1-0.3,0-1.2
			c-0.1-1.1-0.1-1.7,0.1-1.8c0.4-0.3,1.5,1.6,2.3,1.4c0.6-0.2,0.6-1.5,1-1.5c0.2,0,0.3,0.2,0.8,1.2c0.6,1.3,0.6,1.5,1,1.9
			c0.3,0.3,0.8,0.7,1.2,0.5c0.8-0.4-1-3.7-0.1-4.5c0.5-0.3,1.4,0,1.8,0.3c1.7,0.8,1.4,2.2,3.2,3.1c0.8,0.4,1.3,0.4,1.7,1
			c0.4,0.6,0.2,1,0.5,1.8c0.4,1,1.5,2,2.5,1.9c0.4-0.1,0.9-0.3,1.1-0.8c0.1-0.3,0-0.4-0.2-0.8c-0.8-1.7-0.8-1.8-0.8-1.9
			c0.2-0.3,1.8,0.4,3.2,1.7c1.9,1.7,2.3,3,3.3,3c1.1,0,1.9-1.4,1.9-1.7c1.2-2.2,0.1-5.2-1.1-6.8c-0.5-0.6-1-1.1-1-1.2
			c0.1-0.1,1.4,0.8,2.4,2.1c1.2,1.7,2.3,4.6,2.1,7.1c0,0.3-0.1,0.9,0.3,1.5c0.4,0.5,1.2,0.9,1.9,0.7c0.7-0.3,0.8-0.9,1.3-0.8
			c0.3,0.1,0.3,0.3,0.4,0.4c0.3,0.6-0.1,1.4-0.7,1.7c-0.7,0.4-1.4,0.1-1.6,0.1c-0.6-0.2-0.8-0.5-0.9-0.5c-0.3,0.2,0.3,1.9,0.6,3.1
			c0.4,2.2-0.4,2.5-1.5,8.1c-0.7,3.5-1,5.3-0.9,6.3c0,0.4,0.1,1.1-0.3,1.9c-0.3,0.8-0.8,1-1.1,1.9c-0.3,0.8-0.2,1.1-0.3,1.9
			c-0.2,1.8-1.3,3-1.6,3.5c-1.4,1.7-3.4,2.1-3.3,2.3c0.1,0.2,1.6-0.2,3.4-0.9c0.8-0.4,3.1-1.5,5-4c0.2-0.2,0.8-1.6,2-4.4
			c0.1-0.2,0.4-0.8,0.3-0.9c-0.2-0.2-1.2,1.4-1.4,1.2c-0.3-0.2,0.7-1.9,1.3-4.2c0.7-2.8,0.5-5.1,0.8-5.1c0.3,0,0.3,2.9,1.2,3
			c0.6,0.1,1.4-1.1,1.9-2c3-5.2,4.5-7.9,4.8-10c0.3-2.1-0.1-1.9,0.4-6.1c0.3-2.4,0.7-4.4,0.4-4.5c-0.2,0-0.4,1-1.2,2.6
			c-1.1,2.3-2.6,4.1-2.9,4s1.2-2.3,1.3-5.6c0.1-1.7-0.2-3.1-0.3-3.1c-0.1,0-0.2,1.6-0.4,1.6c-0.3,0-0.3-1.2-1-1.6
			c-0.1,0-0.5-0.3-0.8-0.1s-0.3,0.6-0.7,0.9c-0.3,0.3-0.9,0.4-1.3,0.3c-0.8-0.5,0.5-3.4-0.4-3.9c-0.2-0.1-0.3,0-2.2,0
			c-0.3,0-0.7,0-0.9-0.3c-0.3-0.3-0.2-0.7-0.4-0.8c-0.5-0.4-1.8,0.8-2.4,0.3c-0.4-0.3-0.2-0.8-0.6-1.5c-0.7-1.1-2.1-1.3-2.3-1.3
			c-0.3,0-1.1-0.2-1.8,0.3c-0.7,0.4-0.7,1.1-1.2,1.2c-0.4,0.1-0.8-0.3-1.4-0.9c-0.6-0.6-0.8-0.9-0.8-1.4c0.1-0.6,0.8-0.7,0.8-1.2
			c0-0.3-0.3-0.3-0.8-0.9c-0.8-0.8-0.5-1.5-1.1-1.9c-0.4-0.2-0.6,0.1-1.2,0.1c-1.4-0.1-1.9-1.6-2.4-1.4c-0.5,0.2-0.3,1.4-0.8,1.7
			c-0.8,0.4-2.4-3-4.3-2.8c-1.4,0.1-1.9,2.1-3,1.9c-1.1-0.2-1.2-2.1-2.2-2.3c-1-0.1-1.6,1.7-2.5,1.6c-1.2-0.2-1.2-3-2.5-3.3
			c-1.3-0.3-2.2,1.9-3.4,1.5c-1.4-0.3-1.1-3.5-3-4.1c-0.1-0.1-0.8-0.3-1.4,0c-1.4,0.8-0.8,3.6-1.5,3.8c-0.8,0.2-1.5-3.1-3.5-3.4
			c-1.2-0.2-1.5,1-3.2,1.4c-2.5,0.5-4.3-1.6-5.2-0.8c-0.4,0.3-0.2,0.9-0.3,2.7c-0.1,0.9-0.4,3.4-1.2,3.5c-1.3,0.3-3.3-6.1-4.2-5.8
			c-0.8,0.2-0.3,4.2-0.7,4.3c-0.3,0-0.3-1.5-1.4-3C148.5,326.2,147.4,324.7,146.8,325z"/>
	</g>
	<g>
		<g id="Beard_1_">
			<path class="st2" d="M271.3,265.7c1-8.4,1.4-9,1-10.9c-0.2-1.3-0.6-2.7-0.3-4.7c0.1-0.8,0.3-1.3,0.3-2.4c0.1-1.5-0.1-3.4-0.5-3.5
				c-0.3,0-0.3,0.5-1,1.2c-1,1.1-1.5,0.8-2,1.5c-0.7,1,0.3,1.9-0.2,3.7c-0.2,0.9-0.6,1.4-1,2.1c-1.3,2.4-0.6,4.1-0.9,10.6
				c-0.1,0.8-0.2,1.7-0.2,2.6c-0.6,8.2-2,19-2,19c-1.4,10.4-2.4,20.9-3.8,31.3c-1.9,13.3-4.3,26.6-6.8,39.8c-0.1,0.3-0.2,0.7-0.3,1.3
				c-1.5,6.8-4.5,11.7-6.6,14.8c-5.5,8.2-12.3,15.4-18.5,23.1c-5.4,6.5-11.5,12.6-18.5,17.2c-0.8,0.5-2.3,1.4-4.1,1.2
				c-0.4-0.1-1.7-0.2-2.7-1.3c-0.2-0.3-0.4-0.5-1.2-3.1c-0.7-2-0.8-3-1.5-3.1c-0.5-0.2-0.8,0.3-1.2,0c-0.6-0.3-0.3-1.4-0.8-1.6
				c-0.5-0.3-1.7,0.5-2.1,1.6c-0.3,0.8,0.2,1,0.4,3c0.3,1.9,0,2.6,0.6,3.5c0.4,0.6,0.9,0.8,0.9,0.8c-0.1,0.2-1.8-0.1-2.3-1.1
				c-0.3-0.8,0.3-1.3,0.2-2.7c-0.1-1.3-0.8-2.5-1.3-2.5s-0.9,1.4-1.1,2.2c-0.2,0.8,0,1.3-0.2,1.4c-0.3,0.2-1.1-0.9-1.5-2
				c-0.3-0.8-0.3-1.4-0.3-1.4c-0.1,0,0.1,3.8,0.2,4.9c0,0.5,0,0.8,0,1.1c0,0.2-0.3,2-1.7,3c-1.1,0.7-1.8,0.1-3,0.9
				c-0.3,0.2-0.3,0.3-1.1,1.1c-1.6,1.6-2.4,2.4-3,2.5c-1.4,0.3-2.3-0.9-2.8-0.5c-0.3,0.3,0.1,0.9,0.1,1.8c-0.1,2-2.5,4.2-4.9,4.7
				c-1.4,0.3-2.7,0-2.9,0.6c-0.1,0.3,0.1,0.3,0.2,0.8c0.2,1.1-0.8,2.3-0.9,2.3c-0.2-0.1-0.2-1,0.1-1.7c0.2-0.6,0.4-0.8,0.3-0.8
				c-0.2-0.2-1.4,1.3-3,2.4c-0.8,0.7-2.8,2.1-5.4,2.4c-1.7,0.3-1.8-0.3-4.2,0.1c-1.4,0.2-1.8,0.4-2.5,0.2c-1.4-0.4-1.7-1.8-2.8-1.8
				c-1-0.1-1.2,1-2.4,1.4c-2.2,0.6-3.9-2.8-5.7-2.1c-1.4,0.5-1.3,2.8-2.3,2.9c-1.2,0.1-1.7-3.2-3.2-3.3c-0.9-0.1-1.2,1.1-2.5,1.2
				c-1,0.1-1.9-0.6-2.2-0.8c-1.9-1.4-1.5-3.3-2.8-3.7c-0.8-0.3-1.9,0.2-2.3,0.8c-0.8,1.2,0.3,3.3,0.2,3.3s-0.7-2.9-1.8-3
				c-0.8-0.1-1.3,1.4-1.9,1.3c-1-0.2-0.5-3.5-1.9-4.2c-0.7-0.3-1.7,0.1-2.3,0.6c-0.8,0.7-0.9,1.6-1.3,1.5c-0.4-0.1-0.4-1.3-1-1.4
				c-0.6-0.1-0.8,1.1-1.7,1.2c-0.6,0-0.8-0.7-1.8-1.3c-0.1-0.1-1.8-1-2.7-0.4c-0.9,0.7-0.3,2.5-0.9,2.9c-0.3,0.2-0.9,0.2-4.6-4.2
				c-2-2.4-2-2.6-3.3-4c-2.1-2.2-2.4-1.9-3.5-3.3c-1.9-2.6-1.9-5.5-2.4-5.5c-0.5,0-0.7,2.2-0.8,2.2s0.6-2.4-0.1-5
				c-0.4-1.7-1.5-3.6-2.4-3.5c-0.6,0.1-0.5,0.8-1.7,2c-1.1,1.1-1.6,0.9-1.9,1.7c-0.5,1.3,0.5,2.9,0.3,2.9c-0.1,0-0.7-0.8-1-2
				c-0.4-1.6,0.1-2.1-0.3-3.3c-0.3-0.8-1-1.9-1.4-1.7c-0.7,0.2-0.1,2.4-1.2,5.7c-0.3,1-0.8,1.9-1.5,2.6c-0.3,0.3-0.8,0.8-1.7,1
				c-0.3,0.1-1.1,0.3-3-0.4c-1.7-0.6-2.8-1.4-2.8-1.4c-6.2-4.4-9-7.4-9-7.4c-6.2-6.8-9.2-10.1-13.5-15.4
				c-9.8-11.8-8.7-11.6-13.1-16.6c-0.5-0.6-1.6-1.9-2.8-3.8c-1.9-3-2.5-5.7-3-7.3c-2.3-9-2.9-13.3-2.9-13.3
				c-1.3-9.5-0.4-0.4-3.5-20.6c-1.4-9.6-2.8-19.3-4-29c-1.9-15.1-4.8-31.4-4.8-45.6c0-0.1,0.1-0.4-0.1-0.9c0-0.1-0.2-0.5-0.3-0.8
				c-0.5-0.7-1.4-0.8-2.1-0.8c-0.6-0.1-1.4-0.2-2.2,0.4c-0.3,0.3-0.5,0.6-0.6,0.6c-0.2,0.3-0.3,0.7-0.3,0.8c-0.3,2.4,0.3,4.1,0.3,4.1
				c0.8,2.9,0.8,6.1,0.8,7.7c0,2.2-0.3,3-0.4,7.3c0,0-0.1,2.4,0.2,2.4c0.2,0,0.3-1.7,0.6-1.7c0.3,0,0.5,1.6,0.5,1.9
				c0.7,5.1,0.2,9.1,0.2,9.1c-0.3,2.6,0.1,6.8,1,15c0.5,4.9,0.8,5.5,0.9,8.7c0.2,4.7,0.2,7.9,0.2,7.9c0,1.6,0.3,3.2,0.3,4.7
				c0,0.3,0.1,0.9,0.2,0.9c0.2,0,0.3-1.1,0.4-1.9c0.3-1.8,0.3-2.5,0.7-4.1c0.2-0.7,0.3-1,0.3-1c0.4,0,1.3,5.9,0.6,12.2
				c-0.6,5.4-0.8,8.1-1.2,8.9c0,0.1-0.5,1.4-0.3,3c0,0.3,0.2,1.2,0.4,1.2c0.3,0.1,0.6-0.8,1.4-3c1.1-3,1.3-3.2,1.3-3.2
				c0.4,0.1-0.1,5.8-0.3,7.8c-0.2,1.4,0,2.8-0.1,4.2c0,0.1-0.1,1.1,0.1,1.1c0.3,0.1,0.5-2,1.2-2c0.3,0,0.7,0.6,0.7,0.6
				c0.3,0.6,0.1,1.3,0.1,1.4c-0.2,0.7,0,2.4,0.4,5.8c0.5,4.3,2.2,8.4,2.6,8.3c0.1,0,0.1-0.5,0-2.4c0-0.7-0.2-4.9-0.1-5
				c0.2,0,0.3,2.9,1.1,7.2c0.8,4.4,1,3.6,2.4,9.7c0.1,0.3,0.3,1.6,0.5,1.5c0.2,0,0.1-1.4,0.1-3.1c0-0.8-0.1-1.6,0-1.6
				c0.1,0,0.1,1.4,0.8,3c0.4,0.8,0.5,0.8,0.8,1.4c0.5,1.4,0,2.2,0.5,3c0.3,0.5,0.7,0.3,1.4,0.8c1.9,1.3,1.1,4,2.8,5.2
				c0.6,0.4,0.8,0.2,1.7,0.4c2.1,0.7,2.4,2.8,4.6,6.1c1.7,2.7,2,2.3,5.1,6.8c1.4,2.1,1.2,1.9,2.2,3.4c1.8,2.4,3.5,4.2,5.4,6.2
				c3.2,3.3,4.1,3.6,4.4,5.1c0.1,0.4,0.3,1.4,1.2,1.9c0.6,0.4,1,0.3,1.5,0.4c1.8,0.3,3,2.4,3.7,3.8c1.2,2.2,1.1,3.5,2.4,4.1
				c0.7,0.3,0.9,0,1.5,0.4c0.8,0.6,0.7,1.6,1.5,3.9c0.5,1.4,0.8,2.1,1.5,2.6c0.8,0.7,1.3,0.3,2,0.8c1.2,0.9,0.7,2.1,1.9,3.1
				c0.7,0.5,1,0.3,1.4,0.9c0.5,0.8,0.1,1.4,0.6,2c0.5,0.6,1.4,0.1,1.8,0.6c0.7,0.8-0.5,2.4,0.3,3.2c0.6,0.8,1.7,0.1,2.3,0.8
				c0.4,0.6,0.3,1.6-0.2,2.3c-0.4,0.6-1.1,0.5-1.1,0.8s0.8,0.9,1.8,1c1.6,0.1,2.9-1.4,3.1-1.2c0.2,0.2-0.4,0.7-0.4,1.7
				c0,0.8,0.4,1.5,0.6,1.8c0.6,0.9,1.4,1.4,1.7,1.5c0.8,0.4,1.3,0.3,1.4,0.7c0.2,0.6-1.2,1.1-1.1,1.9c0.1,0.8,1.5,1.2,2.1,1.4
				c1.4,0.4,2.5,0.3,2.5,0.4c0,0.3-2.9,0.7-2.9,1.2c0,0.4,1.7,0.3,3.1,1.5c0.9,0.8,0.6,1.3,1.4,1.9c1.7,1.4,4.1-0.3,5,0.8
				c0.5,0.7-0.3,1.4,0.3,2.2c0.8,1.1,2.5,0,3.6,1.2c0.8,0.8,0.2,1.6,1.1,2.6c0.8,0.9,2.1,0.9,2.4,0.9s1.3,0,2.1-0.6
				c0.8-0.7,1-1.6,1.3-1.5c0.3,0.1-0.1,1.4,0.6,3.1c0.3,0.7,0.4,1.1,0.8,1.2c1.1,0.3,2.1-3.6,3.7-3.5c0.6,0.1,1.2,0.7,1.2,1.2
				c0,0.7-0.8,0.9-0.8,1.6c0.1,0.5,0.7,0.9,1.2,1c1.1,0.3,2.6-0.5,3.1-1.7c0.2-0.3,0.3-0.7,0.5-0.7s0.3,0.5,0.8,0.8
				c0.6,0.3,1.4,0.1,1.5,0.1c0.6-0.3,1-0.7,1-0.6c0.1,0.1-1.5,1.4-1.3,2.2c0.2,0.5,1,0.8,1.5,0.8c1.2,0,2-0.9,2.2-1.2
				c0.7-0.8,0.8-1.5,0.8-1.5c0.2,0.1,0.2,1.4-0.6,2.4c-0.3,0.4-0.6,0.6-0.5,0.7c0.1,0.2,1.2-0.1,2.2-0.6c1.4-0.7,1.5-1.4,3-2.2
				c1.1-0.7,2-0.8,2-0.8c0.1,0.2-1.6,0.9-1.6,1.9c0,0.3,0.3,0.7,0.5,0.8c0.5,0.2,0.8-0.4,1.9-0.8c0.3-0.1,0.9-0.3,1.7-0.2
				c0.8,0.1,0.8,0.3,1.3,0.3c0.8,0,0.9-0.5,1.6-0.5c0.6,0,0.8,0.3,1.4,0.5c1.4,0.5,2.3-1.2,4.6-1.8c1.2-0.3,0.9,0.1,3.5-0.1
				c2-0.2,3-0.2,4.3-0.8c0.6-0.3,2.6-1.2,3.5-3.3c0.2-0.4,0.3-0.8,0.3-0.8c0.1,0,0.2,1.2-0.3,2.1c-0.3,0.7-0.8,0.9-0.8,1
				c0.1,0.2,1.4-0.9,3.2-1.5c1.4-0.4,1.4,0,3-0.4c1.4-0.3,1.7-0.7,4.1-1.6c1.9-0.7,1.9-0.5,2.6-0.8c2.3-1.1,1.9-3,4-4.1
				c1.4-0.8,1.8,0,3.1-0.8c1.7-1,1.5-2.4,3.2-3.3c1.4-0.7,1.9,0.1,3-0.6c1.8-1.1,1.4-3.5,2.9-4.1c0.8-0.3,1,0.3,1.9,0.2
				c1.7-0.3,2.7-2.4,3.2-3.2c0.3-0.7,2.5-2.7,7-6.8c5.2-4.7,8.5-7.2,9.5-9.7c0.1-0.3,0.5-1.3,1.4-2.4c0.7-0.9,1.4-0.9,2.1-1.9
				c0.5-0.7,0.6-1.1,0.8-1.8c0.3-0.7,0.6-1.3,2.5-3.5c3.4-4.1,3.5-3.6,4.3-5.1s0.9-2.1,1.9-2.8c0.8-0.6,1.7-0.6,2.4-1.5
				c0.3-0.4,0.3-0.7,0.8-1.4c0.6-0.9,1.1-1.4,1.4-1.7c1.6-1.5,1.6-2.5,3.5-4.7c0.7-0.8,0.4-0.4,2.5-2.6c2.1-2.2,3.2-3.3,3.7-4.1
				c1.3-1.9,1.2-2.6,2.4-3.5c0.6-0.4,1.3-0.7,1.6-1.4c0.3-0.5,0.3-1,0.7-1.4c0.4-0.3,0.7-0.1,1-0.3c0.8-0.5,0.3-1.7,1-2.3
				c0.3-0.3,0.5,0,1.2-0.3c0.1,0,0.8-0.3,1.4-0.9c0.7-0.8,0.3-1.4,1-3c0.1-0.3,0.3-0.7,0.8-1.5c1.4-2.4,1.4-2.2,1.7-2.8
				c0.5-1.6-0.2-2.5,0.5-3.2c0.4-0.3,0.7-0.2,1.3-0.6c0.9-0.7,1.1-1.8,1.2-1.7c0.2,0.1-0.6,2.2-0.4,2.3c0.2,0.1,0.9-1.2,1.5-2.7
				c0.4-1,0.6-2.2,1.1-4.6c0.3-1.2,0.4-2,0.5-1.9c0.3,0,0.2,2.6,0.5,2.6c0.1,0,0.2-0.1,0.3-0.6c0.5-1.5,0.2-2.6,0.2-4.3
				c0-0.8,0-3.1,0.9-3.5c0.1,0,0.3-0.1,0.5,0c0.7,0.3,0.6,1.9,0.5,3.4c-0.1,1.3-0.3,2.4-0.3,2.4c-0.1,0.7-0.3,1.2-0.2,1.2
				c0.1,0,0.3-0.8,0.6-1.5c1.5-4.8,1.5-5.9,1.4-6.6c-0.2-1-0.3-0.8-0.3-1.9c-0.2-1.8,0.2-2.8,0.5-5c0.5-3.3,0-2.9,0.4-4.1
				c0.7-2.1,1.8-3,1.6-4.7c-0.1-0.5-0.2-0.8-0.2-1.4c0.1-1.2,0.6-1.9,1-2.7c0.6-1.3,0-1.4,0.3-4c0.1-0.8,0.5-3.5,1.1-5.4
				c0.1-0.3,0.3-0.8,0.2-1.4c-0.1-0.6-0.3-0.7-0.6-1.3c-0.3-0.9,0.3-1.2,0.2-2.9c0-0.5-0.1-0.7,0-1.1c0.1-0.6,0.3-0.8,0.3-1.4
				c0-0.5-0.2-0.8-0.1-0.9c0.1,0,0.3,0.3,0.4,0.8c0.1,0.3,0.2,0.6,0.2,1c0,0.4-0.2,0.8-0.2,0.8c0.1,0,0.4-0.6,0.6-0.8
				c1-1.8,0.6-4.7,0.5-7c0-0.2,0.1-1.6,0.2-4.6c0.2-4.1,0.3-6.1,0.3-6.8c0.3-2,0.8-4.1,0.8-5.9c-0.1-1.2-0.1-1.8-0.3-2.4
				c-0.2-0.3-0.3-0.7-0.3-1.1c0-0.8,0.4-1.4,0.5-1.5c1.2-1.7,0.8-8.6,1.2-14C270.8,270.8,270.9,269.2,271.3,265.7z"/>
			<path class="st2" d="M94.7,404.5c0,0,0.2-1.4-0.3-1.9c-0.4-0.5-0.1-1.7,0.1-2.7s-1.7-2.1-1.7-2.1s-0.1,1.1-0.3,2
				c-0.2,0.9-0.6,1.7-0.3,2.7C92.6,403.7,94.7,404.5,94.7,404.5z"/>
			<path class="st2" d="M198.3,402.8c0.3,0.8,1.8,0.8,2.3,1.6c-0.3-2.2-0.8-1.9-0.1-4.3c0.8-2.4,0.6-4.6-0.5-4.6
				c-1.6,0.1-2.1-3.6-1.8-4.9c-1.4,1.3-1.7,2.9-1.9,5.3c-0.2,2.4-0.2,4.1,0.2,5.2C196.8,402.2,198,402,198.3,402.8z"/>
			<path class="st2" d="M205.9,407.2c0.8-1,0.6-1.9,0.1-3c-0.5-1.2-0.8-2-1.7-1.4c-0.8,0.6-1.6,2.4-0.7,3.6
				C204.5,407.6,205.1,408.2,205.9,407.2z"/>
		</g>
	</g>
	<g id="Soul_Patch">
		<path class="st2" d="M132.8,377.2c0.9,0.2,3.1-3.3,2.5-6.6c0-0.2-0.4-2.4-1.2-2.4c-1.1-0.1-2.6,3.8-1.9,7.3
			C132.3,376.4,132.3,377.2,132.8,377.2z"/>
		<path class="st2" d="M160.6,369.5c0.3-0.9-2.1-3.2-2.8-2.9c-0.5,0.3-0.3,2.9,1.1,3.3C159.6,370.2,160.5,370,160.6,369.5z"/>
		<path class="st2" d="M164.4,369.7c-0.3-0.4-0.8-0.9-1.2-0.8c-0.7,0.2-0.5,1.5-1.4,3.6c-0.8,1.9-1.6,2.4-1.3,3.1
			c0.3,0.5,1.4,0.8,1.9,0.4c0.6-0.3,0.6-0.8,1.3-3C164.4,370.9,164.8,370.3,164.4,369.7z"/>
		<path class="st2" d="M155.9,370.1c-0.8,0.1,0.7,6.9-0.9,7.5c-0.4,0.2-1-0.2-1.3-0.5c-0.5-0.8,0.3-1.6,0-2.7
			c-0.3-1.1-1.7-1.9-2.3-1.6c-0.5,0.3,0.2,1.4-0.2,3.3c-0.3,2.1-1.7,3.8-1.9,3.7c-0.2-0.1,0.3-1.2,0.8-3.6c1.1-5.4,0.4-7.1-0.1-7.9
			c0-0.1-0.8-1.2-1.1-1c-0.5,0.2,0,1.9-0.4,4.1c-0.4,1.9-1.4,3.5-1.7,3.5c-0.6-0.2,0.8-5.2-0.7-6c-0.3-0.2-0.8-0.1-1.2,0
			c-0.8,0.3-1.1,1.1-1.3,1.6c-1.3,3.3-0.9,4.1-1.9,5.2c-1,1.1-2.6,1.5-3,1.1c-0.2-0.3,0-0.6,0.3-1.4c0.2-0.6,1.5-4.4,0.4-5.2
			c-0.3-0.2-0.7-0.3-0.9-0.1c-0.8,0.4-0.3,2.4-0.3,4.2c-0.2,5-4.8,8.4-5.2,8.7c-1.7,1.2-3.5,1.5-3.5,1.7c0.1,0.2,1.4,0.1,2.5-0.3
			c1.5-0.4,2.4-1,2.5-0.8c0.1,0.1-0.1,0.4-0.7,1.2c-1.2,1.6-1.6,2.2-1.6,2.3c0.1,0.1,1.3-0.7,2.4-2c1.1-1.3,1.3-2,2.4-2.9
			c0.4-0.3,1.2-0.9,1.4-0.8c0.3,0.3-0.1,1.5-0.8,2.4c-0.4,0.7-1,1.2-1,1.2s1.1-1.3,1.4-1.1s0,1.6-0.3,2.5c-0.4,1.2-0.9,1.8-0.6,2.2
			c0.2,0.3,0.4,0.3,0.7,0.3c0.8-0.1,1.2-1.4,1.4-2.2c0.3-1,0.1-1,0.3-1.6c0.4-1.1,1.3-1.1,2.3-2.2c1.1-1.2,1.4-2.4,1.6-2.4
			c0.3,0.1-0.3,2,0.2,2.3c0.4,0.3,1.4-1,1.4-0.9c0.2,0.2-1.3,2.9-3.9,5.9c-1.8,2.1-2.7,3.2-3.8,4.1c-1.4,1.1-3.2,2.3-3.5,3.8
			c0,0.2-0.1,0.8,0.2,1c0.2,0.1,0.4,0.3,1.4-0.2c1.4-0.6,2.2-1.4,2.2-1.4c2.6-2.6,3.5-3.8,3.5-3.8c2.3-3.3,3.9-6.1,6.7-9.4
			c0,0,0.9-1.1,1.1-1s-2,3.2-2.9,6.4c-0.1,0.3-0.3,1,0,1.1c0.4,0.3,1.6-1.3,1.8-1.2c0.1,0.1-0.5,0.8-0.9,1.9
			c-0.3,0.7-0.4,1.9-0.1,2.2c0.5,0.3,1.6-1,1.9-1.3c1.6-1.7,2.2-3.6,2.8-5.7c1.4-4.9,1.8-7.1,2.2-7c0.3,0,0.5,0.9,0.4,1.7
			c-0.1,1.9-1.7,3.6-1.9,5.1c0,0.3-0.1,0.5,0.1,0.7c0.3,0.2,0.7,0,0.8,0c1-0.4,1.4-2.2,1.6-2.8c0.9-3.7,1.5-6.2,1.9-6.2
			c0.3,0,0.6,1.4,0.5,2.9c0,0.5-0.2,3.9-1.7,6.1c-0.2,0.3-0.6,0.8-0.4,1.5c0.1,0.3,0.3,0.7,0.6,0.8c0.7,0.3,1.6-0.9,1.9-1.3
			c3.4-4.1,0.8-11.7,0.4-12.8C157.5,372.5,156.6,369.9,155.9,370.1z"/>
		<path class="st2" d="M140.3,374.6c0.4,0.1,1.4-2.1,1.5-2.6c0.6-1.4,1.1-2.5,0.7-3c-0.3-0.3-0.9-0.3-1.4,0c-0.3,0.2-0.7,0.5-0.9,3.6
			C140.1,374.5,140.2,374.6,140.3,374.6z"/>
		<path class="st2" d="M152.9,372.4c0.5,0.2,1.4-1.9,1.5-2c0.5-1.2,0.9-2.1,0.5-2.6c-0.4-0.5-1.7-0.5-2.3,0.1
			c-0.4,0.4-0.3,1.4-0.2,3.2C152.6,372.3,152.8,372.4,152.9,372.4z"/>
	</g>
</svg>
