<svg version="1.1" id="Layer_1" xmlns="http://www.w3.org/2000/svg" xmlns:xlink="http://www.w3.org/1999/xlink" x="0px" y="0px"
	 viewBox="0 0 547 547" style="enable-background:new 0 0 547 547;" xml:space="preserve">
	<style type="text/css">
		.st0{fill:#85E5FF;}
		.st1{fill:#FFFFFF;}
		.st2{font-family:'COCOGOOSE';}
		.st3{font-size:190px;}
		.st4{letter-spacing:-1;}
		.st5{letter-spacing:-7;}
		.st6{fill:#00AADD;}
		.st7{fill:#0074B2;fill-opacity:0.5;}
		.st8{fill:#0076B7;}
		.st9{font-size:225px;}
		.st10{letter-spacing:23;}
		.st11{letter-spacing:-9;}
	</style>
	<g id="BG">
		<rect class="st0" width="547" height="547"/>
		<g>
			<g>
				<g>
					<text transform="matrix(1 0 0 1 5.99 177.9342)" class="st1 st2 st3 st4">bac</text>
					<text transform="matrix(1 0 0 1 402.79 177.9342)" class="st1 st2 st3 st5">k</text>
				</g>
			</g>
		</g>
	</g>
	<g id="CloudGears">
		<g id="Cloud_2_">
			<path class="st6" d="M504.2,352.7c0,17.5-14.2,31.7-31.7,31.7H92.8c-0.4,0-0.9,0-1.3,0l0,0c-26.5-0.7-48-20.6-49.3-45.5
				c0-0.8-0.1-1.6-0.1-2.5c0-0.8,0-1.5,0.1-2.3c0.1-2.5,0.4-5,0.9-7.5c0.5-2.6,1.3-5.1,2.2-7.5l0,0c4-10.5,11.7-19.2,21.4-24.6
				c1.1-0.6,2.2-1.2,3.3-1.7c-0.5-3.3-0.8-6.7-0.8-10.1c0-4.7,0.5-9.3,1.5-13.7c6.2-27.8,31-48.5,60.7-48.5c8,0,15.6,1.5,22.6,4.2
				c0.1,0,0.2,0.1,0.3,0.1c0.1-0.7,0.1-1.4,0.2-2.1c3.1-27.3,26.3-48.4,54.4-48.4c14.6,0,27.9,5.7,37.7,15.1
				c19.6-19.9,46.8-32.2,76.9-32.2c52.3,0,95.9,37.2,105.8,86.6c1.1,5.5,1.8,11.1,2,16.9c0.5,0,0.9,0.1,1.3,0.1
				c24.1,1.9,43.7,19.6,48.4,42.8c0.7,3.4,1.1,7,1.1,10.7c0,1.3,0,2.7-0.1,4s-0.2,2.6-0.4,3.8c1.1,0.3,2.2,0.7,3.2,1.1
				c7.8,3.2,14,9.5,17.2,17.4c1,2.4,1.6,4.9,2,7.4C504.1,349.7,504.2,351.2,504.2,352.7z"/>
			<path class="st7" d="M503.9,357.2c-2.2,15.4-15.4,27.3-31.4,27.3H92.8c-0.4,0-0.9,0-1.3,0l0,0C71,384,53.4,371.9,46,354.9
				c10,8.4,25.4,13.8,42.8,13.8c19.8,0,37.1-7,46.6-17.4c13.2,6.5,31.3,10.4,51.3,10.4c30.6,0,56.7-9.3,67.6-22.5
				c18.7,10,43.9,16.1,71.7,16.1c31.3,0,59.4-7.8,78.5-20.1c7.8,8,19.7,13.2,33,13.2h0.1c1.1,11.3,16.4,20.3,35.2,20.3
				C486.2,368.7,498,364.1,503.9,357.2z"/>
			<path class="st8" d="M510.1,352.7c-0.1,6.5-1.7,13-4.9,18.6l-1.3,2.1c-0.4,0.7-0.9,1.3-1.4,2c-0.9,1.3-2.1,2.5-3.2,3.7
				c-2.3,2.3-4.8,4.4-7.6,6c-5.5,3.4-12,5.1-18.5,5.3c-0.9,0.1-1.5,0-2.2,0h-2h-4.1h-8.2h-65.6L260,390.6l-131.2-0.1H96
				c-1.4,0-2.7,0-4.1,0c-1.5,0-3.1-0.2-4.6-0.3c-1.5-0.1-3-0.4-4.5-0.6l-2.3-0.4l-2.2-0.6c-5.9-1.5-11.6-3.9-16.8-7.1
				C51.2,375,43,365,39,353.3l-0.7-2.2c-0.2-0.7-0.5-1.5-0.6-2.2c-0.3-1.5-0.7-3-0.9-4.5l-0.5-4.6c-0.1-1.5-0.1-3.1-0.1-4.6
				c0.1-3,0.4-6.1,1-9.1s1.5-6,2.6-8.8l1.5-3.8h4l0,0l-5.5,3.8c2.5-6.4,6.3-12.4,11-17.4c2.4-2.5,5-4.8,7.8-6.8
				c0.7-0.5,1.4-1,2.1-1.4c0.7-0.5,1.5-0.9,2.2-1.3c1.5-0.9,3.1-1.6,4.6-2.4l0,0l-3.2,6c-0.9-5.9-1-11.9-0.4-17.8
				c0.3-3,0.8-5.9,1.6-8.8l1.2-4.3c0.4-1.4,1-2.8,1.5-4.2c0.3-0.7,0.5-1.4,0.8-2.1l0.9-2c0.7-1.3,1.2-2.7,2-4s1.5-2.6,2.3-3.8
				l2.5-3.6c3.6-4.7,7.7-9,12.3-12.7c4.7-3.6,9.8-6.6,15.2-9l4.1-1.6c1.4-0.5,2.8-0.9,4.2-1.3c1.4-0.5,2.8-0.7,4.3-1
				c1.4-0.3,2.9-0.6,4.3-0.8c1.5-0.2,2.9-0.4,4.4-0.5l4.4-0.2c2.9-0.1,5.9,0.1,8.7,0.4c5.8,0.7,11.5,2.2,16.9,4.4l0,0l-5.7,3.5l0.2-2
				c0.1-0.7,0.2-1.4,0.3-2.1c0.3-1.4,0.4-2.7,0.8-4.1l1.1-4c0.2-0.7,0.4-1.3,0.7-2l0.7-1.9c0.2-0.6,0.5-1.3,0.7-1.9l0.9-1.9l0.9-1.9
				l0.4-0.9l0.5-0.9l2.1-3.6l2.4-3.4c3.4-4.4,7.2-8.3,11.7-11.6c4.4-3.2,9.3-5.9,14.4-7.9c5.1-1.9,10.5-3,16-3.5l4.1-0.2
				c0.7,0,1.4,0,2,0c0.7,0,1.4,0,2,0.1c2.7,0.2,5.4,0.6,8.1,1.1c10.7,2.2,20.7,7.5,28.5,15.1l0,0l-4.3,0.1c3.9-3.7,7.9-7.2,12.2-10.5
				c4.3-3.2,8.8-6.1,13.5-8.7c4.7-2.5,9.6-4.8,14.6-6.6s10.2-3.4,15.4-4.5c10.5-2.3,21.3-3,32-2.3c5.3,0.4,10.7,1.1,15.9,2.3
				c5.2,1.2,10.4,2.7,15.4,4.6c20.1,7.6,38,21.2,50.8,38.6c6.4,8.7,11.5,18.4,15.2,28.6c1.8,5.1,3.3,10.4,4.4,15.7s1.8,10.7,2.1,16.2
				l0,0l-4.5-4.5c8.2,0.3,16.2,2.4,23.5,5.9c7.4,3.5,13.8,8.8,19.1,15c5.2,6.3,9.2,13.7,11.4,21.6c0.5,2,1.1,4,1.4,6
				c0.4,2,0.6,4.1,0.7,6.1c0.1,1,0.1,2.1,0.1,3.1s0,2.1-0.1,3.1c0,2.1-0.3,4.1-0.5,6.2l-4.1-6.4c1.9,0.7,3.8,1.3,5.6,2.1
				c1.8,0.9,3.6,1.9,5.2,3c3.3,2.3,6.2,5.1,8.7,8.3c2.4,3.2,4.3,6.8,5.6,10.6c0.6,1.9,1.1,3.9,1.5,5.9c0.2,0.9,0.3,2,0.4,3
				C510.1,350.7,510.1,351.7,510.1,352.7z M498.3,352.7c0-0.7,0-1.4-0.1-2.1c0-0.7-0.1-1.3-0.2-2.1c-0.2-1.4-0.5-2.7-1-4
				c-0.9-2.6-2.1-5.1-3.8-7.3s-3.7-4.2-5.9-5.8c-1.1-0.8-2.3-1.5-3.6-2.1c-1.3-0.6-2.6-1-3.9-1.5l-4.5-1.8l0.4-4.6
				c0.2-1.6,0.5-3.3,0.5-4.9c0-0.8,0.1-1.7,0.1-2.5s0-1.7-0.1-2.5c-0.1-1.7-0.3-3.3-0.5-5s-0.7-3.3-1-4.9c-0.2-0.8-0.5-1.6-0.7-2.4
				c-0.3-0.8-0.5-1.6-0.8-2.4c-0.7-1.5-1.2-3.1-2-4.6c-0.4-0.7-0.7-1.5-1.2-2.2l-1.3-2.1c-0.2-0.4-0.4-0.7-0.7-1.1l-0.8-1l-1.5-2
				l-1.6-1.9l-0.8-0.9l-0.9-0.9l-1.8-1.8l-1.9-1.6l-1-0.8c-0.3-0.3-0.7-0.5-1-0.7l-2-1.5c-0.7-0.5-1.4-0.9-2.1-1.3s-1.4-0.9-2.2-1.2
				c-5.9-3.1-12.6-5.1-19.3-5.6l-4.4-0.3l-0.1-4.2l0,0c-0.1-5-0.6-10-1.4-14.9c-0.9-4.9-2.1-9.8-3.6-14.6
				c-3.1-9.5-7.7-18.6-13.4-26.9c-5.8-8.2-12.7-15.7-20.7-22c-8-6.2-16.8-11.4-26.2-15.1c-18.8-7.6-40-9.3-59.9-5.1
				c-19.9,4.1-38.5,14.5-52.5,29.2l-2,2.1l-2.3-2l0,0c-7.1-6.6-16.1-11.2-25.6-13c-2.4-0.4-4.8-0.7-7.2-0.8c-0.6,0-1.2,0-1.8,0
				s-1.2,0-1.8,0l-3.6,0.2c-4.8,0.5-9.5,1.6-14,3.3c-4.4,1.8-8.6,4.2-12.5,7.1c-3.8,2.9-7.1,6.4-10,10.3l-2,2.9l-1.8,3.1l-0.4,0.8
				l-0.4,0.8l-0.7,1.6l-0.7,1.6c-0.2,0.6-0.4,1.1-0.6,1.7l-0.6,1.7c-0.2,0.6-0.4,1.1-0.5,1.7l-0.9,3.5c-0.3,1.2-0.4,2.3-0.6,3.5
				c-0.1,0.6-0.2,1.2-0.3,1.8l-0.2,1.8l-0.5,5.6l-5.2-2l0,0c-4.7-1.8-9.8-3-14.8-3.5c-2.5-0.2-5.1-0.4-7.6-0.2l-3.8,0.2
				c-1.3,0.2-2.5,0.4-3.8,0.5s-2.5,0.5-3.7,0.8s-2.5,0.5-3.7,1c-1.2,0.4-2.4,0.8-3.6,1.2l-3.5,1.5c-4.6,2.1-8.9,4.8-12.8,8
				c-3.8,3.3-7.3,7-10.2,11.1l-2.1,3.1c-0.6,1.1-1.2,2.2-1.8,3.3c-0.7,1.1-1.1,2.3-1.6,3.4l-0.8,1.7c-0.3,0.6-0.4,1.2-0.6,1.8
				c-0.4,1.2-0.9,2.3-1.2,3.6l-0.9,3.6c-0.6,2.4-0.9,4.9-1.2,7.4c-0.4,5-0.2,10,0.6,14.9l0.7,4l-3.9,2.1l0,0
				c-1.2,0.7-2.4,1.2-3.6,1.9c-0.6,0.3-1.2,0.7-1.7,1.1c-0.6,0.4-1.1,0.8-1.7,1.2c-2.2,1.6-4.2,3.4-6.1,5.4c-3.7,4-6.6,8.6-8.5,13.7
				l-1.4,3.7h-4l0,0l5.5-3.7c-0.9,2.2-1.5,4.5-2,6.9c-0.4,2.3-0.7,4.7-0.8,7.2c0,1.2,0,2.4,0.1,3.6l0.4,3.6c0.2,1.2,0.5,2.3,0.7,3.5
				c0.1,0.6,0.3,1.1,0.5,1.7l0.5,1.7c3.1,9,9.5,16.8,17.7,22c4.1,2.6,8.6,4.4,13.3,5.6l1.8,0.5l1.8,0.3c1.2,0.2,2.4,0.5,3.6,0.5
				c1.2,0.1,2.4,0.2,3.6,0.2c1.3,0,2.7,0,4.1,0H129l131.2-0.1l131.2,0.1H457h8.2h4.1h2.1c0.7,0,1.4,0,1.9,0c4.4-0.1,8.9-1.3,12.6-3.6
				c1.9-1.1,3.6-2.6,5.2-4.1c0.7-0.8,1.5-1.6,2.2-2.5c0.3-0.5,0.7-0.9,1-1.3l0.9-1.4C497.1,361.6,498.2,357.2,498.3,352.7z"/>
		</g>
		<path id="gear_x5F_lg_1_" class="st1" d="M226.6,260.7l-0.2,9.9c-0.1,4.7,3.6,8.5,8.2,8.6l13,0.3c2.2,0,4.2,1.6,4.7,3.8
			c1.2,5.2,2.9,10.2,5.2,14.8c1,2.1,0.5,4.5-1.3,6l-10.3,8.2c-3.6,2.9-4.2,8.2-1.3,11.8l6.2,7.7c2.9,3.6,8.2,4.2,11.8,1.3l10.8-8.6
			c1.7-1.4,4.2-1.4,5.9-0.1c4.1,3,8.5,5.5,13.1,7.6c2.1,0.9,3.3,3.2,2.8,5.4l-2.8,13.9c-0.9,4.6,2.1,9,6.6,9.9l9.7,1.9
			c4.5,0.9,9-2,9.9-6.6l3-14.9c0.4-2.1,2.2-3.7,4.4-3.9c4.8-0.4,9.5-1.2,14-2.5c2.2-0.6,4.6,0.3,5.7,2.3l7.5,13.7
			c2.2,4.1,7.4,5.6,11.4,3.3l8.7-4.8c4.1-2.2,5.6-7.4,3.3-11.4l-7.9-14.4c-1.1-1.9-0.7-4.3,0.9-5.9c3.2-3.1,6.1-6.6,8.7-10.3
			c1.3-1.9,3.7-2.6,5.8-1.8l15.6,6.1c4.3,1.7,9.2-0.5,10.9-4.8l3.6-9.2c1.7-4.3-0.5-9.2-4.8-10.9l-15.9-6.2c-2.1-0.8-3.3-2.9-3.1-5.1
			c0.3-2.2,0.4-4.4,0.5-6.6c0-2.2,0-4.4-0.2-6.6s1.2-4.3,3.3-5l16.2-5.5c4.4-1.5,6.7-6.3,5.3-10.7l-3.2-9.4
			c-1.5-4.4-6.3-6.8-10.7-5.3l-15.8,5.4c-2.1,0.7-4.5-0.1-5.7-2c-2.4-3.8-5.2-7.4-8.3-10.7c-1.5-1.6-1.8-4-0.6-5.9l8.6-14.1
			c2.4-4,1.1-9.1-2.8-11.6l-8.5-5.1c-4-2.4-9.1-1.2-11.6,2.8l-8.1,13.3c-1.2,2-3.6,2.8-5.8,2.1c-4.4-1.5-9.1-2.5-13.9-3.1
			c-2.2-0.3-3.9-1.9-4.3-4.1l-2.3-15c-0.7-4.6-5-7.8-9.6-7l-9.8,1.5c-4.6,0.7-7.7,5-7,9.6l2.2,14c0.4,2.3-0.9,4.5-3.1,5.3
			c-4.8,1.8-9.3,4.2-13.5,7c-1.8,1.2-4.3,1.1-5.9-0.4l-10.4-9.1c-3.5-3.1-8.8-2.7-11.9,0.8l-6.5,7.4c-3.1,3.5-2.7,8.8,0.8,11.9
			l9.9,8.7c1.7,1.5,2.1,4,1.1,6c-2.5,4.6-4.4,9.5-5.8,14.6c-0.6,2.2-2.6,3.7-4.8,3.6l-13-0.3C230.6,252.4,226.7,256.1,226.6,260.7z
			 M329.6,223.2c24.7,4.6,41,28.3,36.4,53s-28.3,41-53,36.4s-41-28.3-36.4-53C281.1,234.9,304.9,218.6,329.6,223.2z"/>
		<path id="gear_x5F_sm_1_" class="st1" d="M137.7,340.7l18.6-5.9c1.2-0.4,2.4,0,3.2,0.9c0.8,1,1.8,1.9,2.7,2.8c1,0.9,2,1.7,3,2.5
			c1,0.7,1.5,1.9,1.2,3.1l-4.2,19.1c-0.7,3.3,1.4,6.5,4.7,7.2l10.9,2.4c3.3,0.7,6.5-1.4,7.3-4.7l4.2-19.1c0.3-1.2,1.2-2.1,2.4-2.4
			c2.6-0.5,5.1-1.3,7.5-2.4c1.1-0.5,2.4-0.3,3.3,0.5l14.4,13.1c2.5,2.3,6.3,2.1,8.6-0.4l7.5-8.3c2.3-2.5,2.1-6.3-0.4-8.6l-14.4-13.1
			c-0.9-0.8-1.3-2.1-0.9-3.2c0.9-2.5,1.4-5.1,1.7-7.7c0.1-1.2,1-2.2,2.1-2.6l18.6-5.9c3.2-1,5-4.5,3.9-7.7l-3.4-10.6
			c-1-3.2-4.5-5-7.6-4l-18.6,5.9c-1.2,0.4-2.4,0-3.2-0.9c-0.8-1-1.8-1.9-2.7-2.8c-1-0.9-2-1.7-3-2.5c-1-0.7-1.4-2-1.2-3.1l4.2-19.1
			c0.7-3.3-1.4-6.5-4.7-7.3l-10.9-2.4c-3.3-0.7-6.5,1.4-7.3,4.7l-4.2,19.1c-0.3,1.2-1.2,2.1-2.4,2.4c-2.6,0.5-5.1,1.3-7.5,2.4
			c-1.1,0.5-2.4,0.3-3.3-0.5l-14.4-13.1c-2.5-2.3-6.3-2.1-8.6,0.4l-7.5,8.3c-2.3,2.5-2.1,6.3,0.4,8.6l14.4,13.1
			c0.9,0.8,1.2,2.1,0.8,3.2c-0.9,2.5-1.4,5.1-1.7,7.7c-0.1,1.2-1,2.2-2.1,2.6l-18.6,5.9c-3.2,1-5,4.5-3.9,7.7l3.4,10.6
			C131.1,340,134.5,341.7,137.7,340.7z M172.9,302.1c6.2-6.8,16.7-7.3,23.6-1.1c6.8,6.2,7.3,16.7,1.1,23.5s-16.7,7.3-23.6,1.1
			C167.2,319.5,166.7,308.9,172.9,302.1z"/>
		<g>
			<g>
				<g>
					<text transform="matrix(1 0 0 1 2.288818e-04 520.8516)" class="st1 st2 st9 st10">en</text>
					<text transform="matrix(1 0 0 1 373.2002 520.8516)" class="st1 st2 st9 st11">d</text>
				</g>
			</g>
		</g>
	</g>
</svg>
